<mxfile host="Electron" modified="2023-08-05T12:55:12.525Z" agent="Mozilla/5.0 (Windows NT 10.0; Win64; x64) AppleWebKit/537.36 (KHTML, like Gecko) draw.io/21.6.5 Chrome/114.0.5735.243 Electron/25.3.1 Safari/537.36" etag="QM8Ce35bABMGKVxrtItc" version="21.6.5" type="device">
  <diagram name="Page-1" id="QBfX_gAYkV361GecupHQ">
    <mxGraphModel dx="2074" dy="836" grid="1" gridSize="10" guides="1" tooltips="1" connect="1" arrows="1" fold="1" page="1" pageScale="1" pageWidth="850" pageHeight="1100" math="0" shadow="0">
      <root>
        <mxCell id="0" />
        <mxCell id="1" parent="0" />
        <mxCell id="R19_NycKdf0g5RZ20iZp-22" value="" style="group" vertex="1" connectable="0" parent="1">
          <mxGeometry x="139.99999999999997" y="100" width="222.60000000000002" height="225.90000000000003" as="geometry" />
        </mxCell>
        <mxCell id="R19_NycKdf0g5RZ20iZp-10" value="User machine" style="shape=image;verticalLabelPosition=bottom;labelBackgroundColor=default;verticalAlign=top;aspect=fixed;imageAspect=0;image=data:image/jpeg,/9j/4AAQSkZJRgABAQAAAQABAAD/2wBDAAsJCQcJCQcJCQkJCwkJCQkJCQsJCwsMCwsLDA0QDBEODQ4MEhkSJRodJR0ZHxwpKRYlNzU2GioyPi0pMBk7IRP/2wBDAQcICAsJCxULCxUsHRkdLCwsLCwsLCwsLCwsLCwsLCwsLCwsLCwsLCwsLCwsLCwsLCwsLCwsLCwsLCwsLCwsLCz/wAARCAC0ALEDASIAAhEBAxEB/8QAGwABAAIDAQEAAAAAAAAAAAAAAAQFAQMGAgf/xABCEAABBAIAAwUFAgYTAAAAAAAAAQIDBAUREhMhBhQiMUFRYXGBkSMyBzVCUnKhFSQlM0RTVGJ0dYKSlLGzwdPw8f/EABoBAQACAwEAAAAAAAAAAAAAAAABAwIEBQb/xAAqEQEAAgEDAQcEAwEAAAAAAAAAAQIRAxIhBBMxQVFhgaEicZHRBbHwwf/aAAwDAQACEQMRAD8A+tgAAAAAAAAAAAAAAAAAADJgAAAAAAAAAAAAAAAAAAAAAAAAAAAAAAyYAAAAAAAAAAAAAAAAAAAAAAAAAAAAAAAAAAAAAAAAAAAAAAAMmAAAAAGTAAAAAAAAAAyYAAAAAAAAAAAAAAAAAVUTW1RNrpNrra+zqABXzZvA1983J0mqnm1J43u/usVV/UaqfaDCX7TadOy6aZY5JfDFK1iNZrfie1E9S3sNWY3bZx9lPb6e7bujP3WoAKlwAAAAAAAAAAAAAAAAAAAAAAADke3Fm5Wq43u9ieHmTzNfyJXx8aIxFRHcCp0OOwj5JM5hXSve93fY9ukc5y+TvVynZdtrDa9fGOWrUscU8yIluJ0iN8CLtqI5Dl8Lejly+Ij/AGNxUfFbjTjirObI3o7q1VkXr8j1fQ5joZmK+Fufy8r1uJ66Im3lwoE8k+CHS9i/x7H/AEK3/mwrUysOk/cXBen8Ek/5S+7J3mWMzHG3HYyuvdLLuZUrvjl6cHh4nSKml9ehv9Ze89PfNfCfGGh0VNOOopMWzz5Ovz1u5Qx7rtZW/tWetLZarEcr6vMRkrU35Lpd79xp7QZK3Rx7H0OF1yzK1lbbUeitZG+w93D7OFq/UtLVeO3WtVZP3uzDLA/9GRqsU5XByS5K5h450RVwOJmhsovVUuyyupafv14I3L/a955PQrSab7RnbOZ9eOPmPl6vXtaL7InG6MR6efx/S2yeVlZhIb1BzUs30ox0ONqOTm23MRvhXp0RVX5EiOeGtPmprGUbJFAtZ00UnLYzHpykXSq3r4/vdf8A3nMa18t3CYNy8TcDdy1mZHefLru5dN30k2n6J7ye+X+EzX5mP1/goy+emrE9nH39ptER8c+6mNe0x2nt7xWZn54dGzMYWS13GO9Wda25qRNeiqrm9Vai/dVU9U3s9XcricesbbtuGB0iKsbHu8bm/nIxu3a9+iqzdevBh8WkMbGJUv4Z1ZGIicpe8RsVW/FFXfxNmKRjsz2rfKiLdbarRN4kTjbSSuxYkb/NVeJV95r9jp7O05xGePHviP8Aq/ttTdsnGZ/U/ptxN11iz2ke6yktaC7ClZ3GxYmQLUik8Dk6cPVV8yRXzmCtzpWrZCrLOqqjGMen2ip58tV6O+SqcpP3bufa9K/CmPd2hoMtrD0YlVywJPpW/k73vXpsu+07K7cI7ktjSZk9FMUkaNRyWecxIkr8Prrfl6bLr6FJvWJz9WIj04jv/PPcqpr3ikzGOOfvzPd+OF3HaqStnfHNE9kEksM7muThjki++16+ip6nnv1BKsd1bMPdJEjVk3EnLckrkYzS+9VRE+JzN/mVrmexUbuB2elxktVGp/KXLWuL8msVy/E8V43Lbx/Z/Wo8fnbl/hRVXVGBqXK6Kns4pWNT9D3FcdLWY3Z9fbGZ/TOeqtE7cenvnj45dDNmsJXspTmv1mWVeyPlq/ate9URrXqnRFXppFVPMj5y9mKle07H1I3JFSs2pbdiRqRQJE1XcLYk25z1108k9q+hAk732fS7ZVta5hrOQdanX7tyvJbma1V9WPRHKmvJfoW2b/Eue/qy/wD6DzGKUpekxGYnz9vDjGM90spve9LxM4mP96/lAW7lLs+Nx1Ow2vI7FwZO/bWGOV6JLpjI4mO8CK5Ucq7ToiErE3Lr7GVxt57JbWOfArZ42cttivYYr43qxOiOTSo7XToV+KVIcwxj+jrnZzEyV9/l93V7ZGt96cSKvxJWP1Nn+007F3FFFjaKubpWrPG18r2oqereJqL8SzVpWItWI4iIn3zH7mFela0zW0zzM49sf6V4ADnOiAAAAAKjN4ODNxVo5Z5oVgkfIxYkYu1c3hVHI9P90KOn2Klo36FyPIslZWnbK5kldWOciIqaRzZFTfyOzBt6fW6+lTsqW+ny48WpqdHo6t+0tX6vN8xl7E9o4k8Hcp9fxU7mu+krGp+sn9l8Jm8dmmS3KUkUXdbLObxRPZxO4NJuNy+Z34Ny/wDLa+ppzp3iMTw1KfxOhp6kalM5gI9elSqyW5a8EcclyXn2XMTSyydfE76r9feSAcmJmIxDqzETOZR46VKK1ZuxwRttWWxsnmRPHI2NNNRV9x4kxuNlTINkrRuTI8HfUXf2/A1GN4+voiIhLBO+3flGyvdhonqVbMTIZ4myRNfFI1jt6R8TkexensVEVCNdw2IyErJrdRkkrGctJEdJG9WefA50bkVW+5dlgCa6lq81nCLadbcWjKLDj8dXZZjhqwsjsqnPjaxOXJqNIkRWfd1pETWiNWwOCpzssV6MTJo+LlOVZHpDvz5TXuVrfkiFmCe1vGfqnlHZU44jhokp05bFW3JCx1mqkra8qp4o0lThcjfiYbTpstS3mwRpbliZBJMieN0TF2jVX2f99CQDHdbuyy2x5KtuAwLLKWkoxc5JlsJtZHRtmVeLmNic7lo7fXfCWE0MNiGaCZiPhnjfFKx29PY9Fa5q69psBNtS9sTac4RXTrXMRHehWsXjLkNeCxWY+OvwpX0r2Ph0iN+zexUenTp0U3VKlSjAytUhZDAzfCyNNJtV2qr6qq+qqbwRN7TG2Z4IpWJ3RHIADFmAAAAAAAAAAAAAAAAAAAAAAAAAAAAAAAAAAAAAAAAAAAAAAAAAAAAAAMmAAAAAAAAAAAAAAAAAAAAAAAAAAAAAAADJgAAAAAAAAAAAAAAAAAAAAAAAAAAAAAAAAAAAAAAAAAAAAAAAAAAAAAAAAAAAAAAAAAAAAAAAAAAAP//Z;" vertex="1" parent="R19_NycKdf0g5RZ20iZp-22">
          <mxGeometry x="45.60000000000002" width="177" height="180" as="geometry" />
        </mxCell>
        <mxCell id="R19_NycKdf0g5RZ20iZp-16" value="" style="image;points=[];aspect=fixed;html=1;align=center;shadow=0;dashed=0;image=img/lib/allied_telesis/computer_and_terminals/Personal_Computer.svg;" vertex="1" parent="R19_NycKdf0g5RZ20iZp-22">
          <mxGeometry y="164.10000000000002" width="45.6" height="61.800000000000004" as="geometry" />
        </mxCell>
        <mxCell id="R19_NycKdf0g5RZ20iZp-23" value="" style="group" vertex="1" connectable="0" parent="1">
          <mxGeometry x="460" y="40" width="199" height="221.8" as="geometry" />
        </mxCell>
        <mxCell id="R19_NycKdf0g5RZ20iZp-6" value="User Machine" style="shape=image;verticalLabelPosition=bottom;labelBackgroundColor=default;verticalAlign=top;aspect=fixed;imageAspect=0;image=data:image/jpeg,/9j/4AAQSkZJRgABAQAAAQABAAD/2wBDAAsJCQcJCQcJCQkJCwkJCQkJCQsJCwsMCwsLDA0QDBEODQ4MEhkSJRodJR0ZHxwpKRYlNzU2GioyPi0pMBk7IRP/2wBDAQcICAsJCxULCxUsHRkdLCwsLCwsLCwsLCwsLCwsLCwsLCwsLCwsLCwsLCwsLCwsLCwsLCwsLCwsLCwsLCwsLCz/wAARCAC0ALMDASIAAhEBAxEB/8QAGwABAAIDAQEAAAAAAAAAAAAAAAUGAQQHAgP/xABGEAACAgECAwUEBQgIBAcAAAABAgADBAUREiExBkFRYYETcZGhIiMyQrEUM0NSYnKiwSRzgoOSs+HwFRZTk0RjssLR0vH/xAAbAQADAQEBAQEAAAAAAAAAAAAABQYEAwIHAf/EADQRAAEDAwEECQMDBQEAAAAAAAEAAgMEBREhEjFBURNhcYGRobHR8CIywRQV4TM0QkPxUv/aAAwDAQACEQMRAD8A63ERBCREQQkRG8EJEjs7WNOweJbLOO4foadmcH9ruHqZXMvtLqV2644TGTxUB7SPNmG3wWYKi4QU+jjk8gmNNbaip1a3A5nQK5O6IpZ2VVHVnIUD1M0bdZ0ao7Nm0k/+UWt/ywZQ7br7247rbLW8bXZz/EZ84nkvbv8AWzxTqKwN/wBj/D4VeD2i0QfprD+7Tb/MCY/5j0X/AKt3/ZeUiJn/AHmo5Dw/laf2Km5nxHsr2mv6G3/iuH9+q1fnw7TepzMLI/MZNFhI32rsUt6gHec3mPPv8Z1Ze5R97QfL3XJ9giI+h5Hbg+y6hE59javquLsKsqxkG30Lj7RNvDZ+Y9CJPYfaihyEzajSx/S1bvX6r9ofONILtBLo76T1+6U1FmqItWjaHVv8FY4niq6m5FsqsSytuasjBlPqJ7jUEHUJORg4KRET9X4kREEJERBCREQQkRNbNzcbAoe+9tgOSKPt2N3Ko8Z5c4MBc44AXprS9wa0ZJX0yMjHxamuvsWuperN4+AA5k+AlR1LtDlZRarE4sejmOIHa6webDoPIfHukfqGo5Wo3e0uOyLuKalP0K1Ph5+J/lyGlJStuj5SWQ6N8yrGgtDIQHzDLuXAe6RERInyREQQkREELMxMzG+0EJElKNB1rIRbBQlSsNwMiz2bkePAASPWa+Zpuo4GxyadkJ2FiNx1k+HEOh94E7uppmt2y0gdizNqoHv2GvBPavGJm5mDZ7TGtKEkcannW/k69JcdL1vF1DhqfanK2/Nk/Rs8TWT+HX39ZRZkEgggkEEEEHYgjvBE0UlfLSnA1byWatt0VWMnR3P35rp8SuaLrvtzXiZrAXHZabjyFvgr/teHj7/tWOWNPUMqGbbCoioppKZ/RyDX1SIiaFnSIiCEiIghfLIyKcWm2+5uGupeJj3+AAHieglB1HPyNRyDdbyRd1pqB3WpPD3nvP8AIbDf7Q6l+VZBxam/o+MxDEHlZcORPuHQevjIOSN0rTK/omH6R5lWdooBCwTPH1Hd1D+VmYiIlT5IiIISJtYWDlahd7DH9mGC8bNa3CqqDtvsASfQSx4/ZXEXY5WRda3Ldatqa/lu/wA5sp6GeoGYxpzWGpuEFMdmR2vIb1Uol+TQtCQDbBpbzs4rD8XJns6NojDY4GL6VqPmIxFkmxq4efslhv0GdGny91z+T3ZnCqyMnIyrQG/JOBaVPMC1wTx7eQ6e/wApLZfZzSnqtOPU1V3A5q4LH4C+x4QysSNpGdl8quq/LxLDwvkcD18XLd6wVZPftz9DPMFEaaqjE2MHd87V6qK9tXRyGDORjPZnXyyrdtPFtVV1dlVqh67FKurdCpnueXdK1d3YKiKWdmOwVQNySZWHGNVHDIOm9c4y6Di5WVjbk+xtdAT1Kg7g/DafCbOdkDKzMvIA2W65nQHrwdF39NprT55Ls7btndk4X0yLa6Nu3vwM9qS46Dq5ylGHktvk1p9W7HndWvj+0O/x6ynT3XZZVZXbU5Sytg9bDqrDoZoo6p1LJtjdxCzVtG2ri2Dv4Hl84rpsTT03Or1DEryFADfYuQfcsXqPd3jyM3Jcse17Q5p0K+fPY6NxY4YISIie14SRutZ35Dg2ujbXW/U0c+YZhzb0G5+EkjKV2kyvb5/sFP1eIgTl09o+zOfwHpF9wqOggLhvOgTG2036ioDTuGpUJMzESHX0BZmIiCE8OpJIAA3JJPIAAc95Z9N7NK9LW6hxrZYhFVKHb2PEOTuR1YeHQefd67O6SFWvUclPrHG+IjD82hH50g/ePd4D38rPKW3WxpaJZxnO4e6lbpdXBxhgOMbz+AueKcrSNQBI+uxbdmHMCxCOYHkw6f6S/wBF1WRVTfU3FXai2IfIjeQPaXAWygZybCzHCpb0HHUx2HqD098hsHW83AxnxqkrccZepreIioN9oBQR38+v4z8hlFtndFJ9h1HzyX7NEbpAyaP7xofnn3q9xOf26zrNx3bMuXyp4agP8AB+c+Q1PVlO4z8v1udh8GJE7m9xZ0afJcBYZsauHmuiysazod7WtnacCbC3tLakPC4sHP2lR8e8j/8AJo43aTVKSBca8hO8OoR9vJkA+YMsmn6vg6gOGtil4G7U2bB9u8qRyI906/qKW4N6MnB4cD3Lh+nq7a7pQMjjxHeq4naTWMUeyyEqZ15E5Nb128v1tio+U1M7V9S1BQLWCY5I2rpVlqYjnzJ3J+Mv3Cp+0AfeAfxnwy8THzKLMe5d63HLbkUYdGXzE5y2+ocws6YkcsepyukVypmPD+gAPPPoMLm8TYzMS7ByLce37SHdWA5Oh+y49/8AvpNeSrmlhLXbwrFj2vaHNOQUiInlelMdn844mctLnanL2qbfoto+w3r09R4S8Tl/PuOxBBBHUEHcETounZYzcLEyfvWVj2gHdYp4XHxBlPZajaaYTw1Hz5vUlfabZc2dvHQ9vD51LbiIlCpteXda0ssY7Kis7HwCjczmltrXW3XP9q2x7W97nil91q01aXqDA82q9kP71hX/ADnP5MXuTL2R9WVWWCIBj5OvHzxSInpEttYpVXZYwG5WpGcgeYUGT4GdAqUkDUrzN/ScEahnU0sN6UHt8jzrQj6P9o7D4zTsqvq2FtVtZbfh9rW6b+7jAlo7KrjirOcOpyHtQOn3kqUfQ69xJYzbQwCWoax+5L7hUGGmdIzfu8VZQANgOQHQDoJ4ttqorsttcJXWpd2PQKJ7lX7UZp+owEPIgX37HrzIRT8CfhLCqqBTRGQ/CoikpjUzCIcd/YojVNUv1K4k7pjofqat+ndxPt94/L8Y6IkLJI6Vxe85JX0OKJkLAxgwAkRE5rok9KzoyOjFXQhkZSQysO8ETzENyCM6FXbRNX/L6zReQMupd2PIC5OnGB4j73+vKanNcbItxL6Mmr7dLhwP1h0ZT7xuJ0eq2u6qq6s7paiWIf2WG4lja6w1EZY/7h5hQ92ohTSB7Ptd5FQ3aLAGRiHJRfrsTdjt1ak/aHp19D4ylzp7KrKysAVYFWB6EEbETm2VQcbJycc/obXrB8VB5H4bRbeoA14lHHQprYqguY6F3DUfPm9fGIiIFRpLX2VyN6s3FJ/NWJeg/ZsHCdvUfOVSTPZq016oqd1+PdWfeu1g/AzfbpOjqWHnp4pbdIukpXjlr4K7xES5UAoXtKxXTGH6+RQp9CW/lKTLp2nG+mp5ZdJ/hcSlyPvH9x3BWtj/ALXvP4WzhYr52Xj4qHh9qx42/UrUcTMPPw986Bi4uNh1JRjVrXWvcvVj+sx6k+JlK7PulerYpcgB676lJ/XZeQ9dpfIxssTOjMnHOEsvsr+lbHn6cZ79V87qKMit6rq0srYEMrjcH/WUu1LNB1esozGndXG/V8aw7Mre7n8AZeJTO1Drbn00183THSpgO57XJVfmPjO91a1sYmH3AjCz2dxdKYT9rgc+6uc57q9pu1LUXJ32vaoe6r6sfhOgqNgo8AB8JznPUrnagp6jLyP8xpwvZPRMHWtFhA6Z56vytaIiSyr0iIghZmIiCEly0HUMRdNoqyMmit6XtqC22orcAYspAY77bH5SmyRwtG1DUKTkUewFftHrHtXZWJXbfkFPL1m+gmkilzE3aONyW3KGKaHEztkZ3q6nUdKHXOw/+/V/Iyl63Zj26lk20WV2V2LS3FWQy8QQKRuPdPuezWtDouKfdef5pI3KxcjCuNGQFFoVWIRuIbMNxzmyvqaiWPZlj2RlYrbS00MpdFLtHG5fCIiJE/SSOiNw6tpp8bLF+NTiR039GBOq6X/Xt/lvO9N/WZ2j1Weq/oSdh9F0GIifQV82UT2hTj0rJP8A03os+FgH85RZ0fPp/KMLNoA3NlFqqP2uElfntOcSUvbMStfzHorCwvzC5nI+v/FkEqVZSQykMpHIgg7ggyz4XagKgTOpdnUbe1oC/T82RiOfuPoJV4iunqpac5jKb1NHFVACUblasrtTUa2XCot9oQQHyAgVPMKpO59RNXQdPtzso6lktxV03My8R3a3J68TeS77+/buHOvyxdl8sJfk4bHleBdV/WINmHqNj6RhT1TqqpZ+oORw5Z4JZU0jaOkeaYYPE8ccVbpRu0OMaNStcDZMlVvX97bgYfEb+svMi9a045+JtWB+UUE2UftcvpJ6/iBH1xpzUQEN3jUKdtlSKaoDnbjoVQ4mSCCQQQQSCCCCCORBBmJEK/SIiCFmYmZiCEJ2BJ6AbzoOkYrYmnYVLjaz2ftLR4WWE2MD7t9vSVTQtNOdlLbYv9ExXD2EjlZaPpLWPd1b/WXqU1mpiAZ3cdApS+1QcRTt4an8IZz/AFm4X6pnuOi2+yH90orPzBl3zspMPEycltvqkJQH71h5KvqdpzklmJZjuzEsxPeTzJhe5RstiHaiwQnafMez8rEREmVVpJTQEL6vg+FYvtPpWy/zkXLB2Vp48vNvI5U0JUD+1a3EfkvzmyhZt1DB1+mqxXB/R0sjurHjp+VcIiJeL52k53qeN+SZ+ZRtsq2s9f8AVv8ATX8dvSdElZ7UYZK4+cg+x9Rd+6Tuh+O49RE93g6SDaG9uvunVln6Ko2Dudp38FVYiJHq3Se6bbaLabqm4bKnWxD5jx8j0M8RP0Eg5C/CARgro2Bm05+NVkVcgw2dd+ddg+0h93++s2pz/S9Su02/jG7UWbC+ofeA6Mu/LiHd8PdesfIoyqkuocPW4+iw8fAjqCO8S1oK1tUzB+4b/dQVxoHUj8j7Tu9lAdotNxBXZqCMKrgUWxdvo3sx2GwH3v8A48t5VO/bvkz2h1EZeT7Gtv6PiFlBHMPb0ZuXh0Hr4ya0nRcWvAC5uPXZfk7W3C1QTXuPo1gnmNh18yYlmpxW1TmwaAbzwz890+gqTQUbHVByTuHHH8fnCpkS6WdmNIckocmryrt3UelgafMdldN355GaR4cVQ/BJyNoqQcaeK7C90pGdfBU8kAbk7DxJ5SU03RM3UGV3D0YnIta42eweFKt+JG3vlqxdE0jEKvXjK1i9LLybXHmOPkPQTbysvEw6jbk2rWnQb82Y+CqOZM2QWcM+uodoOHuVhqL26T6KVpyePHuCzj49GLTXj0IEqrXZVHxJJ67nvM+0rdnavHViKcOx17mssWsn0Ab8Zr5fad7cZq8ah6b7N1Ll1YIveUI2O/pyjI3KkY3DXbuAHolYtdZI7Lm7+JI8+K+XaPURkXDCqberGYm0jo93Tb+z095PhICIkjUTuqJDI7irSmp200QibwSIicFoSXXs3jGnTltYfSy7Gv8APg5Ig+A39ZUMbGszMjHxU34r7AhI+6nV29BvOkVolaV1oNkrRUQDuVRsBH9lg2nulPDTv+eqnL9UbMbYRvOp7PnovUREqVIpPlkUVZNN2PaN67UZG8Rv3jzHUT6xPwgOGCv0EtOQubZWNdiZF+NaPp1Nw789mHUMPIjnPhLrr2lnNpGRQu+VQp2A621dSnvHVfh3ylSFraU00pbwO5fQLfWCriDv8hv+daRMzExJgk2cbNzcMXDGuasWqVsA6HcbbgHvHcZrRPTXOYdppwV5exrxsuGQpDRqcW3UMf8AKraq6qvrgLWCi2xduBBxcuvM+6dA3nL5tY+fqGLsMfJtrUfdDcSf4G3X5RtQXBlK0sc3fxSa42x9W4Pa/dwO5dGiUlO0usINmONZ5vUQf4GA+U9HtPqx6JiD3VufxeOP3im6/BI/2Sqzw8Vc3ZEV3cgKiszE9ygbkyjgZnaHUmHEUqALbnmMfHB2AA6cR/Hc9BPlka3q+SlldmQBXYrI6VoihlI2IJ24vnJfsnw8OqdOPjx/fw8LbfPeY5KplwmZC3Ibx61tjpJLbBJO7BdoB1ZKlqNE0ahAgw6bDt9J71FtjHxLPvNTUez2FfW74daUZABKiv6NVhH3WXoN/EScjnHTqOB7NgtGEjZWzsf0gec9q5gQyllYEMpKsD1BB2IMxN7VuD/iepcG3D+UP0/W5cXz3mjIWRmw8t5FfQon9Ixr+YBSIkhpWmvqeSKyCMarhbKccuXUVqfFvw+ZHG6V4YwalEsrYWGR5wApvsxp5St9RtX6Vw9njA91IPN/7R6eQ85ZZhVVVVVAVVAVVHIADkABMy7pqdtPEI28F87qqh1TKZXcfRIiJpWZIiIISVbXdFJNmdhpvvu2TSo5+diAfxD199pgzNU0zKlmw/8A4tVLVPpZBIz/AKuXxLZq/Z8WmzKwFC2ndraBsFsPe1fcD5dD5d9UZWVmVlKshKsrAhlI7iDzkVU0klM7ZeOw81d0lZHVs2mHXiOIWIiJlWxIiIISIiCEm7pufbp2St6DiRh7O6vfbjr335HxHUf6zTmJ7Y90bg9pwQvEkbZWljxkFdBo1jSL0DrmUpuAStzip18iH2mlqPaHCordMOxb8gghSnOqs/rM3Q+4SlxHD7zM5myAAeaSMsUDX7RJI5LLFmLMxJZiWYnqSTuSZiJv6bpWZqTj2f1eMDtZkMN1HiKx3n5D5FRHG+V2ywZJTmSRkLNt5wAvjhYWVqF64+OPA22MN0pQ/ebz8B3/ADF+wsPHwMevGoXZE5sT9p3PV3Pif99IwsLFwKVoxk4UHNiTu9jHq7t3mbMsKCgbSt2nauPzAURcbi6rdst0YPmSkREaJUkREEJERBCREQQkj9Q0jB1Eb2qUvA2S+vYWDybuI8jJCJzkjZI3ZeMhdI5HxO22HBVCztE1LB4mNft6B+loBbYftp9ofP3yMBB6TqEj8vR9KzCzW46rYettP1dnvJXkfUGIKiyg6wnuPuqOmvpA2ahvePZc/iWa/so43OLmAjuTIT/31/8A1kdZ2f1usnbHS0DvptQ7+j8J+UTyUFTHvYe7X0TuO5Usm5479PVRUTcbS9XX7WBl/wBmst/6N55GnaqemBmH+4cfiJn6GQf4nwK09PF/7HiFqxJCvRdcs6YNq+drVIP4m3+U3aey+qPsbrcakd4Be1vgAB851ZR1D/tYfDHquMldTR/dIPHPooKfWijJyn9ljU2XWctxWNwv7zfZHqZbcbsxplWxyGtyWHdYeCr/AAV7fMmTVVNFCLXTVXXWOiVqFUei8o0gssjtZTgdWp9vVKai+xNGIRk9eg9/RVzT+zCgrbqLhz1GPUT7Mf1j8ifcNh75ZURK1VEVVRQFVVACqB3ADlPUShp6WKnbiMe6mqmrlqXbUpz6BIiJpWVIiIISIiCEiIghIiIISIiCEiIghIiIISIiCEiIghIiIISIiCEiIghIiIISIiCF/9k=;" vertex="1" parent="R19_NycKdf0g5RZ20iZp-23">
          <mxGeometry x="20" width="179" height="180" as="geometry" />
        </mxCell>
        <mxCell id="R19_NycKdf0g5RZ20iZp-13" value="" style="image;points=[];aspect=fixed;html=1;align=center;shadow=0;dashed=0;image=img/lib/allied_telesis/computer_and_terminals/Personal_Computer.svg;" vertex="1" parent="R19_NycKdf0g5RZ20iZp-23">
          <mxGeometry y="160" width="45.6" height="61.800000000000004" as="geometry" />
        </mxCell>
        <mxCell id="R19_NycKdf0g5RZ20iZp-24" value="" style="group" vertex="1" connectable="0" parent="1">
          <mxGeometry x="830" y="30" width="213" height="205" as="geometry" />
        </mxCell>
        <mxCell id="R19_NycKdf0g5RZ20iZp-11" value="Domain Controller" style="shape=image;verticalLabelPosition=bottom;labelBackgroundColor=default;verticalAlign=top;aspect=fixed;imageAspect=0;image=data:image/jpeg,/9j/4AAQSkZJRgABAQAAAQABAAD/2wBDAAsJCQcJCQcJCQkJCwkJCQkJCQsJCwsMCwsLDA0QDBEODQ4MEhkSJRodJR0ZHxwpKRYlNzU2GioyPi0pMBk7IRP/2wBDAQcICAsJCxULCxUsHRkdLCwsLCwsLCwsLCwsLCwsLCwsLCwsLCwsLCwsLCwsLCwsLCwsLCwsLCwsLCwsLCwsLCz/wAARCAC0ALIDASIAAhEBAxEB/8QAGwABAAIDAQEAAAAAAAAAAAAAAAEGAwQFBwL/xABAEAACAgECAgMLCgMJAAAAAAAAAQIDEQQSEyEFBjEUIjI1QVFhdJGhsRUjNGVxcoGys9FDYsEWJCUzY3OTouH/xAAbAQEAAgMBAQAAAAAAAAAAAAAABQYBAgMEB//EADMRAQABAgMEBwYHAQAAAAAAAAABAgMEBRESEyExBjJBUXGBwTM0YWOx4RQVIpGS0fCh/9oADAMBAAIRAxEAPwD1sAAAAAAAAAkCAAAAAAAAAAAAAAEkAAAAAAAAAAAAAAAkgAAAAAAAAAAAAAAEkAAAAAAAAAAAAAAAAAAAAAAAAAAAAAAAAAAAAAAAAAAAAAJIAAHP6W6Q+TNHLVcLitWV1qG/Zznnm3h/Aq9vW/pOWeFp9LWv5lZY1+O5L3Htw+Av4mnatxw8UZi80w2Dq2Ls8e7ReMg86s6x9P25XdexPyVVVR9+3PvNG3X9JXpq7WaqaecqV1mPZnBI0ZHenrVRH/URc6TYeOpRM/tH9vULbtPTFSuurri+SlbOMFn7ZNGhb070FTnfr6G/NU5W/ppla6e59D9Vm+f93i+f+xWVo3wmU0X6Nuuqe3l8J0c8wz65hrm7t0RyiePxjVfLetnQ0MquOqt8zhWop/8AJJP3Gjb1yXPg6B+h2349sYR/qVEEnRk+Fp5xM+f9aIS50gxtfKYjwj+9Vgu629MyjLhw0tXJtONcpS7PPOTXuLxROVlGnnJ5lOqucn2c5RTZ5NLwZfdl8D1fS/RtJ6vT+REXm+GtWKaN3Tpz9E70fxl/E1XJvVTOmnqzkAFfWxJAAAAAAAAAAAAAAABwetXimXrOn+LKCX7rX4pl6zp/iyglxyX3efGfR886Se+R4R6g/YD9iaVpZunfE/Vb1aH6FZWSy9O+J+q3q0P0KytEfl3sPOfrKXzj3nyp+kAAJBEIl4MvuyPV9L9F0nq9P5EeUS8GX3ZfA9X0v0bSer0/kRW895UefouXRfrXPL1ZgAVhdgAAAAAAAAAAAAAAAHL6b+THoX8o8XubjVZ4O7fv57fB8hWMdRfrH22Hd61eKZes6f4soJZ8qw29szVt1Rx7J0UnPMZuMTFO7pq4RzjWVhx1F+sfbYMdRefjHs8jsK8P2JX8F8yr9/sg/wAy+VR/H7rx0n/Z35P6F7s7q7l4K7i4W/fs4cMb8c84wcjHUX6x9thk6d8T9VvVo/oVlaPDgcJt2tduqOM8p+KSzPHbu/s7umeEc4+ELDjqL9Y+2wY6i/WPtsK8D3fgfmVfv9kb+ZfKo/j91ha6i4ln5Rxh552dmC70cPg0cPPD4VfD3duzasZyeTS8GX3ZfA9X0v0XSer0/kRBZvY3UUfqmefOde5Z+j+J39Vz9FNOmnKNO9mABALWkgAAAAAAAAAAAAAAA4PWrxTL1nT/ABZQT0vpjo+3pPRS01dkK5cWuxSnFyj3meWFzKpb1T6ahnY9Jav5bZRk/wAJxS95aMpxdm1Zmi5VpOqkZ9gMRfxEXLVEzGkclfH7HSs6C6eqzu0FzXnqddnuhJv3GlZptZTnjabUV4zl202QXtksE7TftV9WqJ81WuYW9b69Ex4xKw9O+J+q3q0P0Kysll6d8T9VvVo/oVlaPJl3sPOfrKQzj3nyp+kAAJFDol4MvuyPV9L9F0nq9P5EeUS8GX3ZHq+l+i6T1en8iK3nvKjz9Fy6L9a55erMACsLskgAAAAAAAAAAMg1dXmHct+cKnUQ4nNpcO3NMs+TCyn+BmI1nRrVVsxq2sjJx1ZdNaiEpz/xKdFtPPnCqyXCmo/ZCKf2yM8LdTKyNOnVFSnb0jKc5RnZh03qCxHcucs5fM6TbmHCL8T2f7V0R2nPr1Gt1O1VcCuUKK7Ld8ZzU7JuSUI4kml3r58+30c8eknrLKNPXRKmtUaXSbuLCVnEsnSp7cxlHEVy54fu542Jjm230TMaRzdQYOaukLHCuSrjmctNbht5jpbK42SsePLHmvwJ7r1LnQ3KFVFlk9tkqpzjYla64wclJKLaw0327vRiTd1dpv6J5Nu/S6TUxjDUUU3RjlxVtcZpeTK3I59nV3q/b26KEH/ozsr90JJe429bTO1UNVxuhXY52USaStTi4rwu9yu1J8vs7VrS1kkq69FBxhDTxtUVpbrcPdOCqca2tuHFp/8AnPpbru0+zqmPNxvUWapne0RPjH++rQt6o9Eyy67tXV5kpwnH/vHPvNK3qdZ/B18X6LaGn7YS/od96rXPum7hwhTp1TKdUlJ2yUq4W2ZlnCcU3jk849sXa25WOupd7K2dULI02XvFUE7JbINeVqK+x/YeyjHYunhFfqj7mW5fXxm3p4awqd3VPpuCnw3pbe9eNtsot8vNOKXvLzp4yhRp4SWJQpqhJduGopPmjUp1Guus08HGFS4dltznXYpSULuGlCEpJrcufPOPT5MmsjpZKtW1O62SnGimMpZk+WZcnhY5Zk+z8cPlicXdxOzTd7O52wWBsYParsa8dObcyMnIlVKVet7oslK7RaSmNVm6XeWRo4jtj6W+1+gzxjPumcoTkrbtA5Jzk3GE962pRfJJZ8x5Jo07Xvi9r2OgDl6OMa9Rp4R09tE3pbu6OI1m2yEqu+eG9z5vvvT5fJ1DWqnZdLde3GoADV0AAAAAA+Laq7q7abI7q7YSrnHmt0ZLDXLmfYBMa8JYnp6HPT2OC36dTjS+feKcVFpLs7EI0UwmpxjiSd2Hl/xpqyfb52kzKDOstdmO5rPQ6V472ccQdT2W2Q3Qy5bZ7WsrLftfnIeh0jjGKjOEVTDT4rtsgpVQWIxlsazjyfb6TaJM7VXe13dHc13pdLKTk645enel5ZXzL5uCS5YIek08o0wanw6o1wjWrLFXtracd0E8PGF2mwDG1PezsU9zHbVG1RTlbHa206rJ1vmsc9jRi7h0qVajGcNkHUnVbbCTg3ualKMk3z5835fSbIGswzNFM8Zh8RqhF2NR/wAxpzy28tRUF2+hIxLR6WNVFMIShCh5pcJzjOD5p4mnu55eefM2ANZg2KZ7GKFFVbjKKk5KHD3TnOcnHdu5uTb7T5t0tNs1ZJ2xmocPdVdbU3HO7D4ckZwNZJopmNJhrT0Wmsac1N95CuXzlnzkIPMVbh8/L2+d+fnm4cOJxcd/s4ecvwW92Mdh9gayRTEcoYatNTTKc4qbnNRUp2WWWTcY9kd1jbx6PSZiSBM682YiI4QAAwyAAAAAAAAAAAASBAAAAAAAAAAAAAACSAAAAAAAAAAAAAAAAAAAAAAAAAAAAAAAAAAAAAAAAAAAAAAAAAAAAAAAAAAAAAAAAAAAAAAD/9k=;" vertex="1" parent="R19_NycKdf0g5RZ20iZp-24">
          <mxGeometry x="35" width="178" height="180" as="geometry" />
        </mxCell>
        <mxCell id="R19_NycKdf0g5RZ20iZp-12" value="" style="sketch=0;pointerEvents=1;shadow=0;dashed=0;html=1;strokeColor=none;fillColor=#505050;labelPosition=center;verticalLabelPosition=bottom;verticalAlign=top;outlineConnect=0;align=center;shape=mxgraph.office.servers.domain_controller;container=1;" vertex="1" parent="R19_NycKdf0g5RZ20iZp-24">
          <mxGeometry y="150" width="45" height="55" as="geometry" />
        </mxCell>
        <mxCell id="R19_NycKdf0g5RZ20iZp-25" value="" style="group" vertex="1" connectable="0" parent="1">
          <mxGeometry x="990" y="279.15" width="254" height="200" as="geometry" />
        </mxCell>
        <mxCell id="R19_NycKdf0g5RZ20iZp-4" value="Firewall" style="shape=image;verticalLabelPosition=bottom;labelBackgroundColor=default;verticalAlign=top;aspect=fixed;imageAspect=0;image=data:image/jpeg,/9j/4AAQSkZJRgABAQAAAQABAAD/2wBDAAsJCQcJCQcJCQkJCwkJCQkJCQsJCwsMCwsLDA0QDBEODQ4MEhkSJRodJR0ZHxwpKRYlNzU2GioyPi0pMBk7IRP/2wBDAQcICAsJCxULCxUsHRkdLCwsLCwsLCwsLCwsLCwsLCwsLCwsLCwsLCwsLCwsLCwsLCwsLCwsLCwsLCwsLCwsLCz/wAARCAC0ALgDASIAAhEBAxEB/8QAHAABAAEFAQEAAAAAAAAAAAAAAAcBAwQFBggC/8QASxAAAQQAAwIFEAYIBgIDAAAAAQACAwQFBhESIRMxQVFhBxYXIjZUVXF1gZGTlLPS0xQVMjVyoSMzQlJTgqKxJJKVwdHUJTRDY3P/xAAbAQACAwEBAQAAAAAAAAAAAAAABgIEBQEDB//EADIRAAICAAMECgIDAAIDAAAAAAABAgMEBRESExVSITEyNFFxgZGh0UGxImHwFCMkQsH/2gAMAwEAAhEDEQA/AJbVqaxWrRumsTRQxN3GSZ7WMB5tXHRW79yDD6dq5PrwVeMvcBxuPE1g6SdAPGojxLE72K2XWLchJ1PBRAngoWnibG3+54ytHBYGWKbeuiRQxmNjhklpq2SW7NGV2kg4lFqP3WTOHmLWaKnXVlbwlH6qx8CihFs8Fp5n8fRkcYt5USv11ZW8JR+qsfAnXVlbwlH6qx8CihEcFp5n8fQcYt5USv11ZW8JR+qsfAnXVlbwlH6qx8CihEcFp5n8fQcYt5USv11ZW8JR+qsfAnXVlbwlH6qx8CihEcFp5n8fQcYt5USv11ZW8JR+qsfAnXVlbwlH6qx8CihEcFp5n8fQcYt5V8kr9dWVvCUfqrHwJ11ZW8JR+qsfAooRHBaeZ/H0HGLeVEr9dWVvCUfqrHwJ11ZW8JR+qsfAooRHBaeZ/H0HGLeVEr9dWVvCUfqrHwJ11ZW8JR+qsfAooRHBaeZ/H0HGLeVEr9dWVvCUfqrHwJ11ZW8JR+qsfAooRHBaeZ/H0HGLuVfJLUWZctTPDGYnXDidBwnCRN/zSNA/NbZrmva1zXBzXAOa5p1BB4iCNyg9b3L2P2MIsRxSvc7DpXhs8RJIh2jpw0fNpxuHKOlVsRk+zByper8Ge9GbbUtm1aLxRKqKgIIBB1B3gjiKJeN85fPD3NwaFoJAkvwMf0gMkfp6QFGykfPX3PV8pQ+5mUcJuyfu3qxUzXvHogiItgygiIgAiIgAiIgAiIgAiIgAiIgAiLf5by8/GpnTWNpmG137MhaS11mQbzExw3gD9s+Yb97fK66FMHZN9CPWqqV01CC6TX4bhGK4u8towF0bTsyTyHYrxnmc8jeegAldhSyHSYGuxC5PM/QEx1gIIgebU6vPpC66CGCvFFBBEyKGJoZHHG0NY1o5ABuV1KuIza6x6V/xXz7jNRllNa1n/JmkiyplaIDTDYnkcsz5ZSfHwjirxy5lkjQ4TQ04v1DPEtqiz3iLn0ub92X1RUuhRXsj5jYyNjI2NDWMa1jGjia1o0ACL6ReB7HKZ6+56vlKH3MyjhSPnr7nq+UofczKOE35P3b1YqZr3j0QREWuZQREQAREQAREQAREQAREQAREQBfp1Z71upSg/W2pWxNOmoYDvc89DRqT4lMdKpXo1a1Su3ZhrxtjjHLoONxPOTqT41w+RKHCWb+JPbqK7BTgJ/iSAPkI8Q2R/MVICVM4xDnaql1R/Y0ZVQoV7x9b/QRFpMz47Hl7CbF8tbJYLm16UT9dmWzIDsh2m/ZABc7eNzelY0YuclGPWzYNpZt0acfC3LVetEToJLM0cLNfxSEBa5uaMpPfsNx3CS7XQf4yAAnoJdp+a8/3r+IYnZkuYhZks2ZCSZJTroCddljR2rW8wAAWKtuOVLT+UukjqeoGPjkYySN7XxvaHMexwc1zSNQWkbtEWmyn3M5Y8k0fdNRYko7MmvAka/PX3PV8pQ+5mUcKR89fc9XylD7mZRwm3J+7erFTNe8eiCIi1zKCIiACIiACKhLRoCRqeIcp8QWQyliMg2o6N57edlWdw9IaouSXWdUW+pFhFclgsw/r69iLpmhljHpe0BWgQd4II5xvXU0+lA011lURF04FTUDUniG8qqvVKzrtulTbx2rEMB05GvcNo+YalcbUU2/wdinJ6IlHK1P6FgeGsI0knjNyXn2rB4Qa+IaDzLdr5a1rQ1rQA1oDWgcQAGgAX0vn1s3ZNzf5eo91wVcFBfgKH+qliJnxXDsMY7WOhVNiUD+PZO4O8TWjT8XSpgXnDMGI/WuN4ziAdtMsXJeBJ/gR/oov6WtV/LK9q3a8CbNYiImQieiMqdzOWPJNH3TUVMqdzOWPJNH3TUSZb25ebJI1+evuer5Sh9zMo4Uj56+56vlKH3MyjhNeT929WKua949EF2eTMHoXYMRuXqsFhhnZWrixG14bwbdp7mh3OXAeZcWSACTxAEnxBS7l2maOC4XA4aSGBs83Pws5MrgfFrp5kZtc66NmL0bYZXSrLtZLoSPrrfy34Iw/2eP/AITrfy34Jw/2eL/hbRUStv7eZ+4zbmvlXsRlmuCjHitXD8MpQxvZAzaipwgPlnmJcG7LBqSABp41nYVkieUMmxeV0LToRVrOBl05pZt4Hibr4111PCatW1evu/S3rkr3yTvHbMj3BkMQ5GgADp01PMNitGeZ2RrVVT6l0v8AL/3uZ8MuhKx2Wrr6l+DBo4RhGHAClSghI43hgdK78Uj9Xn0rPRFlSlKT1k9WacYxitIrQoQDuO8HjB4lp8Qy3gOIhxkqthmOuk9UCKUHnOyNk+cFblFKFk63tQejIzrjYtJrUiXGsv38FeHSaTU5HbMVljdBryMlbv0d59D+Q06myzXr24J61iNskMzDHIx3EWn/AH5QVEGLYfNhV63ScS8xOBhdpvljfvjdpzniPTqmrLce8StiztL5FjMMCsO9uHZfwddlDBMOs4bNcvU69h1i1IIDYja/Zih0j7Xa5ztLp4MGwStLHPXw6nFNGSY5IoGNe0kFp2XAa86+8LpjD8Ow6kOOvWijf0ybOrz5zqVmpcxOJnbZKSk9H+hgw+GhXXFNLVfsIiKoWz5c1r2uY4Atc0tcDxEEaEFabrTyd4Bwr2SL/hbtFKMpR7L0A5PHMnZcnwfF46GEUILpqSvqS160bJRNGOEY1rgNd5Gh8agnXUa841Xpy1aq0q89u3MyGtXYZJpZDo1jRyk/2Xm3EX0pb+JS0WvbSkt2JKrZGhr2wvkLmggcy3MrslLajLpIsn3KnczljyTR901Eyp3M5Y8k0fdNRYtvbl5s6jX56+56vlKH3MyjhSPnr7nq+UofczKOE15P3b1Yq5r3j0RlYbU+n4hhtLTUWbMTH/8A5A7cn5AqZ/FxcijjI9ThsUtW3DtaVXZaeaWwdkf0h3pUkLKzi3auUF+F+/8AI08pr2aXPxf6CIsa7cqYfWnuW5BHXgZtyOO/l0AA5SToAOlYyTb0RsGQtNbzTlek5zJsTrmRu4sr7dhwPMeADgD4yo1x/NWJ40+SJrn1sO1IZWjdoZG6/asObxno4h06annuJMOHybaW1dLT+l9lSeI/EUS+zPOUXO2TcmYP3n1LIb+TCt3SxHDcSjMtG3BYjGm0YXglhPEHt+0D4wFAqyaV67h1qK5SlMViI6ggnZe3ljkHK08RH+41Htbktbj/ANUnr/ZGOIevSifEWFhd+HFMPoYhENlluBkuyTqWOO5zCeg6jzLNSxKLi3F9aLqeoXE5x+q6eIZZxTEZDHVZYdFZLY3yOeISLMbAxm86nXXoXbKP+qps/UeF6/a+t49nxfRp9f8AZW8E2r0l+dV7o8rao2x2Zf7Qz+yPkviFm24kgANpWdSSdAANnjK7AcQ4158yhh/1nmXAq7mkxR2fps+7VvB1Bw2jugkNHnXoNSxtFdElGB6IqiKzasRU6tu3LuiqwTWZSORkTDI7+yo9Z0529nvKOH27dGzan+kVZXQzCOrPI0SN42hzW6buIrH7I+Se+7XsVn4VCM881qexamOs1maWxKTyySuMjvzKtpijllWi1b1I6nVZuzdbzHY4GHbhwmvITXgJ0dM4bhPPpu2v3RyePeuVRFo11xqiox6jh6Iyp3M5Y8k0fdNRUyp3M5Y8k0fdNRKFvbl5skjX56+56vlKH3MyjhSPnr7nq+UofczKOA17y1kY1kkc2OMDle8hrR6SmvJ+7erFXNenEeiJKyTU4DB/pBHb37Es+um/g2HgWf2J866hY9OtHTqU6jPsVoIoG9PBtDdfOshK+It3tsrPFjLRXuq4w8EFFee8ZfcxAYXC/wDwuHkGUA7pLbm7yfwA7I6S5ShPKyCGed/2IIpJn/hjaXH+ygGaaWxLNYlJdLYkknkJ4y+Rxe4+krVyahTsdr/9f2yGIlpHTxPhERNZRCImkjiGxtL5XubHEwDUvkeQ1rR4yQEAS/kUPGWcNLtdHS3nR/gNqTRdMsHCKLcMwzDKA0P0SrDC4j9p7W9u7znUrOXz/ETVlspr8tmrFaRSCi/qr2m7GXqQd2xfcuSN5g0MhYfPq70KT1BGfsSbiOZcQDHaw4e2PDozyaw6ul/rLh5lZy6G1en4HWdD1KcP2rGOYq5u6KOHDoHchdIeHl9GkfpUrrlcg4f9X5XwrabpLeEmJTcmpsnaZ/QGBdUvHF2by6TBBcf1RMQ+hZZtxNOkmIzQ0GaHfsuJlk3c2y0jzrr1EfVTxDhcRwnDWuBbTqvtSgfxbLtloPSAz+pdwVe8vivX2BkdIiJsIhERAHojKnczljyTR901FTKnczljyTR901EmW9uXmySNfnr7nq+UofczLkcsVPpmOYa0jVlZz7snigHa6/zFq67PX3PV8ow+5mWDkKp2uK33D7T46UR6GDhZNPOW+hbuGt3WXSl5r3MHEVb3Hxj5P2O4VVRVS8b5i4hC+xQxKvH9uenahZ+KSJzQoE3gAEaEDQg8h5l6EUc5nyVdfZsYjg0bZWWHulnphzWSMkdvc6Da0aQTvI1Gmu7XXRu5lOKhTKULHpqVr4OSTRwKLKlw7F4HbM+G4jG4btHU7H5EMI/NXa+C5gtua2thOISbR02nV3wxjxvn2W/mmd2wS1clp5lLRmAu1yLl+S3Zixy0winVcTh4cP8A2LA1bww1/YZv2Tynf+xvysE6nzy+Oxj0kZYNHChWeXNd0WJt2o52t9JG5SIxkcbWMja1jGNaxjGANa1rRoGtA3aDkWDmGZxcXVS9det/Raqpeu1I+kRUS0XDUZkxmPAsHv4g4t4VjOCqMdp+ktSatjbpzA7z0A8y8/Va0+JXqdMOc6fELkNYvO9xfPIGuefSSV0+fMytxzEm1akm1hmGufHC5p7WxYPayTjTcR+yzo1P7a+upxh/0zMsVhzdY8Mqz2ySO14WQfR4x4+2cR+FMGGr/wCLh5WS63/kRfSTbFFHDFFDE0NjiYyKNo4msYA1oHmX2qKqXyQXnXM2IfWmP45dDtqOS5JHARxGCDSCMjxhoPnU6ZjxA4VgWNX2nZkgpy8CRyTyfoov6iF5z00AHNuW1lVfTKz0IsIiLdOBERAHofKnczljyTR901Eyp3M5Y8k0fdNRJlvbl5skjX57IGDVieIYjET4hDMtnlqmaWCYXE4aSSQ/SZefhLB4Ug+LUDzLFzXVN6rgtID/ANrG6kL9OSMxTOefQCuhAAAAAAAAAHIArU7dMLCpeLf1/wDSnCv/AMmVn9JFURNRy6acqol0IueyzmejmOG6YixlipanjfCD2xr8I7gJgDv0c3TXpB8/QqU4OD2ZLpAIiKIBEVuaaCCKSaeWOKGJpfJLM9rI2NHGXPdoAPOgC4ozz/nFsTLGAYVNrO/aixSxGd0LeJ1aNw/bPE88g3cZPB4ua+qKZmy4fl172RuBZPiOhY9wO4tqA9sPxHQ8wG5yjNbWCwL1Vlq8l9kWwpf6leH8DhOJ4k9uj8QucFGeeCoNgEfzF/oUPk6Bx5gdPHyL0dl7DvqnBMFw/TR9anC2Yf8A3vHCSnzuLlYzOzZqUPFgus2qIiXSRHfVTv8AA4XheHNPbXrbp5ND/wDDVaDoR0uc0/yqIV2PVGxD6bmWxA1wMeG14KTdDu4Qjh5D49XAH8K45NWBr3dEf76SDCIiugEREAeiMqdzOWPJNH3TUTKnczljyTR901EmW9uXmySNpLBHLJVkfqTWkfLHzB7o3Ra+hx9KuqqLzDQLRZuxA4ZlzG7TXaSmq6tBv0ImskQNLekbWvmW9UZ9VXENmtguFtcNZppb8w5Q2FvBR69BLnH+VWMNXvLoxOsjKhfv4ZahuULElezD+rkjI+zytc12rS08oIIUjYZ1VHNbHHjGGl5GgdYw54BPSYJjpr4pPMowRM92Gru7aIak4wdUfJUoBfatQH92enOSPPCHj819S9UXJEbdWXbEx/dhp2gT55WNH5qDEVPhdPizupKuI9VWsA5uE4XK9+nay4i9sbAefgoC4n/OFwGMZix7HX7WJXHyRtdtR12Dg60Z5C2Ju7Uc51PStSitVYSqnpiuk5qERFaAv05oq9ulYmh4eKvZgnkg29gTNieH8GX6HQHTQ7ipI7LMngBn+oO/66jBFXtw1dzTsWugakn9lmTwAz/UXf8AXTssybv/AADP9Rd/11GCLx4fh+X5f2d1L9y1LeuXbs3623ZnsyacQdK8vIHQNdArCIrqSS0RwIiLoBERAHofKnczljyTR901Eyp3M5Y8k0fdNRJlvbl5skjdoiLzOhQNn3EPrDM+JhriYqIiw6Lo4AEyD/OX+hThetxUKV67L+qp1p7Um/jbEwvIHoXmmWWWeWaeYl0s8kk0rjxukkcXuPpJWxldes5T8DjPhERb5EIiIAIiIAIiIAIiIAIiIAIiIAIiIAISACTxAElF0OVMsW8y3o27D24VXkacQs7w0tGjjXidyvdxdAOp5j52WRri5S6gJpyux8eW8sseNHNwmhtA8Y1hadCi2zWtY1rWgNa0BrWt3BoA0AACJOlLak34kyqIiiBi4hQp4rTs4fca91ay1rJmxyPic5ocH6bcZDtN2/f/AHXN9jjI/eVj2658xEViqycFpFtHB2OMjd5WPbrnzE7HGRu8rHt1z5iIvbf28z9w0Q7HGRu8rHt1z5idjjI3eVj2658xERv7eZ+4aIdjjI3eVj2658xOxxkbvKx7dc+YiI39vM/cNEOxxkbvKx7dc+YnY4yN3lY9uufMREb+3mfuGiHY4yN3lY9uufMTscZG7yse3XPmIiN/bzP3DRDscZG7yse3XPmJ2OMjd5WPbrnzERG/t5n7hoh2OMjd5WPbrnzE7HGRu8rHt1z5iIjf28z9w0Q7HGRu8rHt1z5idjjI3eVj2658xERv7eZ+4aIuRdT3I0L2yfVhlLSCG2LVuRmvSx0myfOCumggr1oooK0MUMETdiKKFjY42N5msYAAPMiKrZZOb/k9TpcREXmB/9k=;" vertex="1" parent="R19_NycKdf0g5RZ20iZp-25">
          <mxGeometry x="70" width="184" height="180" as="geometry" />
        </mxCell>
        <mxCell id="R19_NycKdf0g5RZ20iZp-21" value="" style="image;html=1;image=img/lib/clip_art/networking/Firewall-page1_128x128.png" vertex="1" parent="R19_NycKdf0g5RZ20iZp-25">
          <mxGeometry y="120" width="80" height="80" as="geometry" />
        </mxCell>
        <mxCell id="R19_NycKdf0g5RZ20iZp-26" value="" style="group" vertex="1" connectable="0" parent="1">
          <mxGeometry x="400" y="340" width="210" height="158.29999999999995" as="geometry" />
        </mxCell>
        <mxCell id="R19_NycKdf0g5RZ20iZp-1" value="XDR" style="shape=image;verticalLabelPosition=bottom;labelBackgroundColor=default;verticalAlign=top;aspect=fixed;imageAspect=0;image=data:image/jpeg,/9j/4AAQSkZJRgABAQAAAQABAAD/2wBDAAsJCQcJCQcJCQkJCwkJCQkJCQsJCwsMCwsLDA0QDBEODQ4MEhkSJRodJR0ZHxwpKRYlNzU2GioyPi0pMBk7IRP/2wBDAQcICAsJCxULCxUsHRkdLCwsLCwsLCwsLCwsLCwsLCwsLCwsLCwsLCwsLCwsLCwsLCwsLCwsLCwsLCwsLCwsLCz/wAARCAC0AOoDASIAAhEBAxEB/8QAGwABAAIDAQEAAAAAAAAAAAAAAAUGAQQHAwL/xABCEAABBAIAAwYDBAUICwAAAAABAAIDBAUREiExBhNBUWFxFCKBFTKRoSNCYnKxFjNSU4LB0fAkNENEg5KTorLD0v/EABoBAQACAwEAAAAAAAAAAAAAAAADBQECBAb/xAAxEQACAgAFAgMFCAMAAAAAAAAAAQIDBBESITETQQUiURRhcaHBMkJSgZGx0fAjJOH/2gAMAwEAAhEDEQA/AOthERAEREAREQBERAEREAREQBERAEREAREQBERAEREAREQBERAEREAWNFZWEBlERAEREAREQBERAEREARFHXctToWsXVnOnZCSSNj9jhjLQA0vHk4kNHv8AhmMXJ5I1lJQWcmSKIEWDYIiIAiLUyF6vjqdm5PvggYXcI1xSOPJrG78SeQWUm3kjDais2baLyrzxWa9axEdxzxRzRnza9ocF6rDWWwTTWaCIiGQiIgCIiAIiIAiIgCIiAIiIAiIgCIiAIiIAVyztTc+NzNwA7jq6px/8LfH/ANxcukZK22hRu3Dr/R4HvaD0MnRjfqdBcdLnOJc47c4lziepJOyVbeGV5ydj7FH4vblGNa77nTuzGX+1KLWTPBuU+CGxvrI3XyS/Xx9QVPrkOIyUuJvwW2bMY/R2WDf6SBxHEPcdR6j1XWopYp4o5onB8crGyRuadhzXDYIXPjaOjZmuGdXh+J69eUuUeiIi4SyC532xyvxNpuOhfuCk4mYjo+yRoj+yOXuT5K4Z3JtxWPmsgjv3foarTz3M8HR15N5k+3quTOc5xc5xLnOcXOcTsuJOySfVWvh1GqXVfbgo/FcTpiqY8vk6L2Lu/EYx1Rx3JQmLAD17mXcjD/5D6K0LmPZG78JmIonHUd6N1Z2+neD9JGfxBH9pdOXPjqunc8uHudfh1vUoXqtgiIuIsQiIgCIiAIiIAsLKIAiIgCIiAIiIAiIgCIo3L5eniKxnnPE92214WnT5ngdB5AfrHw9zo7Ri5vTHk1nNQTlJ5Igu3F3u6dOiw/NamM0gB/2UPQH3JH/KqAtvIZC5krMlq0/ikdya0cmRsB5MjHgB/nZOzqL0+Fp6Nai+TxuMv69rmuApan2iztCvHVrWQ2CPi4Gvijk4eIlxALwTr6qJRTThGayksyCFk63nB5FgHa/tKP8AeYT714v7gn8sO0n9fXPvXjVfRR+zU/hX6Evtd/43+pIZLL5LKugddka7uQ4RNjYGNHFrZ0PHkFHoiljFQWmKyRBOcpvVJ5s+o3yRSRSxnUkUjJYz5PY4OB/JdioW4r9Opci+5YibJr+i7XzNPqDsFcbVj7M9oBipDUtE/ATv4uLmTWlPIvA/on9b8fPfDj8O7Yao8osvDcUqbNM3s/3Olovlr2Pa1zHNc1wDmuadhzSNggjlpfS86erCIiAIiIAiIgCIsIDKIiAIiIAiIgCIiA1r9iSpTtWY68th8MZe2GH77z5Dx14nkfY9FyS/fuZKzJatP4pHcgBsMjYOkcbfAD/PM7PZCNqr57stBkO8t0eCC8due3WobB/b10d6/j5iwwV9dUvOue5VeI4ay6C0Pjsc/rVbdyUQVYXzTOa5zY2FgcQ3mT85A/NelrH5KiWi7Unr8Z010jRwOPkHtJbv6rzey3SsFkjZq9qu8EjmySNw6EEfkQVdMP2lp5GL7NzbYuOUCMSyNb3FjfICUdA7yPT2PJXF1tkMpwWqPzKGimu1uE3pl8iiorXnOyU9TvLWND5qw259fm6eEeJZ4ub+fuqoparoXR1QZDdROiWmaCLBcwHRc0HrokLIIPMEEenP+ClIQhIHMnkvSCCzZmir1onzTynUccY2T5k+AA8SeSvONwWLwEH2pmJYn2o9FmxxRQPI5Mgaebn+uvbS578RGlb8+h1YfDTve2yXLKxH2c7QSQfEmmIYA0yF9uaKDhYBvic154gPcKKI0SNg6Otg7B9QVNZztDby7+6bxQ0WO3HADzeR0fMR1Pp0Hr1Oni8TkcvMYqjAI2HU9iQHuYfQkdXeQH5dUrnOMNd2SFldcpqujN/UmOzGdu1LFfGuims1p38MccYL5a5J5vZ+wOrh4dfR3RwovEYTH4eIsrt45pAO/sSAGWUjzI6N8gP48zKLz+KshZZqrWSPUYKmymtRsef0CIi5TtCIiAIiIAiIgCIiAIiIAiIgCIiAJpEQEVmMJQzEQbM3gnjaRBYjA7yPx0fNvmP4LmmTxV/FTmG2zk4u7qVuzFM0eLD/ABHX+J7Ate3TqXoJK1qJssMg5td4EdHNI5gjwIXdhsZKjZ7xK7GYCGIWpbSOf4PtVZx/d1b3HYpjTWO+9PAP2SerR5b35eSm8p2dxubiGRxM0Ec8o4uNn+rTnxMgaNh3mQPceIref7PTYZ7ZY3mWlK/gie7+cjcQTwSa5ex8ddB46ONy2SxUjpKcumv/AJyKQF8Mn7zN9fUEFWTpjZ/nwzyZTq+Vf+vi1mvmvgXl4wXZPHVmvibNLI9rS4sYZ7D9jvJSXDo0dB7DxXlmOztPNx1buMkrwyyd2TIGnuZ4HfrlrB94eHn0PmKNev3cjYdZtymSUgNby01jB0axo5Af58VuY7tBmMXBJWqyx904ksErO87lx6ui2dD20R6eensdsErIS8/f0JPbaJt1zj5O3qXHWA7IVNAGS5M3Z3wm1acOW3H9Vg/Aep60bKZW9lZzPbeOFvF3UTeUULT4NB/M9f7tWexPPJLYsSPlmeeJ73kue49B/gArtgOyLI+7uZdrXzfK+GpvcUXiDN4Od6dB69RvphhF1bXnJ/3Yj1WY19KlaYL+7kPguy9vKd3ZtiSvj+Tm9Wz2R+wCOTfX8PNdFrVatOCKvWhjihjbpjI26aPX3817Aa1rosqnvxM73nLj0L7DYSvDRyjz6hERc51hERAEREAREQBYWUQBERAEREAREQBERAEREAREQGlk6EeSo26b9DvoyGOP6krfmY76HS5DLHJDJLDK0tlie6ORp6te0lpC7WfFc+7Z4zuLMOSibqO3qOfQ5NnaOTj+8B+I9VaeHXaZ9N8P9yl8Vw+qCtjyv2KkiLBIAJPQDZ0r480T3ZfG/aGVjfI3irUOG1NscnSg/oo/x24/u+q6ioTszi/szFwslbq1ZPxVrfUPeBph/dGh+Km15nGXdazNcI9hgMP0KUny92ERFxneEREAREQBERAEREARFhAZREQBERAEREAREQBERAERPxQBaWUoxZKjapyaHesPA4jmyVvzMePY6W5tZWVJxeaNZRUk4vhnOh2HznjZx4Po6c/+sLcx3Yu3Bdpz3bNWSvBK2Z8UTZC6RzPmYCXjWt6J9vVXj6LP0K7JY+6Sccyvj4bh4tSS+YCJ+KLiLIIifigCJtN+6AIiIAiIgCIiAIiIAiIgCIiAIiIAsEbBHgQQdEjkfULKICo421dxeetYi9Ymmgt6koSWHueR1LWhzvMbB9R6q3DSrvanGut0m3K4IuY49/E5n3zGCHOA9tbHt6qLn7R5PIx4enhiBkJ4pJrnCGnuzE0gt+cEc+v1Hmu51e0JTh8H+XcrI3LDOVc9+69d+xdHuaxrnucGsY0uc49A0cySVVsJPfzOVv5V00zMbA416UHG4RvdrXG5u9chzPq70UXY7QW8niKWLiJOWvTmlZ5cJDGnm8gDXzePsVK5WePs9hqeKobNyy0Va4YP0jnPOpJdDxJPL39FmNEq1oa80tvgu7MSxMbXrT8sd3732RG5jL5W3etTYlz/AIPBcDpnMJEcsjncLi4DqOo9ufirhjr0GRp17kP3ZWAub4seOTmH2Kq2KObxdE0m9mpZRIXmy99iMGZz+R4ho8tcgvDBWrWFybsferyVKuScZK0czw4RPJ03Thy0fun6KS2lTg4wS8vHvXf+SGm+UJqU2/Nzs8k+38E/ksLkb1p1iDM2qkZjYwQw8XCC3q7k8dfZV3M1bmGha6TtHkZbMvKvWjL+J/PXE7TyQPpzKtGbzdbDwAkCS5KCK1cH5nHpxO1z4R+fT2jMJh5nWHZrNPbJkZTxwxPc0trDwJG9cXkPD3WlNk4Q1z+z2WS3/wCEmIrhObhX9p8vN5L5n1jK2bp4TLT5G3YdYmqzTQxySOc+sGxHXzE74j1PktvspPPYwtWWeWSWR0tgF8ri5x1IdbJ5qRvt76hkooyHPfUsNa1pBPE5h0OSg+xlqu/FR1RIwWIJp+8iLgHgPdxBwHXSjk3ZVKbW+aJYxVV0IJ7ZMsdpxbWtuaSHNgmII2CCGEggqiNvZH+R8tn4uz8R9ouZ33ev7zh304t70rllLVanQuy2JGsHcTNaHEAveWEBrR12VRzHJH2HD3DXe3zMz1aXloP10pMJFOObX3l9SPGzalkn91/Qv1IudToucSXOrQFxdzJJY0klQXaOxahyHZRkM0sbJr/BK2N7mtkb3kQ08DqOa163ZSCWtVlOUyjTJBE8tbMABxMDtDl0UdksPHisn2WLLVux3+RZv4p4dw8EkZ+X33zSquvqbSz52y9xi627pLOOXG+fvRfvNE80VeWwREQBERAFhZRAEREAREQBERAEREBgjewQDvrvoVE4zAY7FWbtqt3hksnQ7wgiGPfF3cehvW/PfT0Uui2jOUU4p7M0lXGTUmt1wRFfAY2tlLOVjD++mDuFjtd3E5/33MGt7Pv4+q+nYWpJlWZaaWeWeNvDBHIW9zCNaHA0N3y5+PipVFt1Zt5t+78jRUVpZJd8/wAzGlHZbD0svFDHYdIx0L+8jlhIbI09CASDy/wUki1jJxecXubzgprTJZogLvZbGZCWOezPcdM2GKFz2yNBf3Y4Q5w4db89LW/kVhP6+/8A9cf/ACrRyRSrE2pZKRA8JTJ5uKzIvE4Slh/ifhX2HfEcBf37w/XACBrQC0r3ZLDXJn2GmerNIS55quDWuceZPA4ED6KwotVdYpa09zd4epwUHHYq8XYrDNe19ie7ZDSDwTSNDD6OEbQfzUvkcRUyNAY5znwV2mMt+HDWloj6NAcCNfRSKLMr7JNSb4MRw1UE4xjszzhibDFDC0ktijZG0nqQxoaCVo5DE1sjYxliaWVrsfP38TY+Hhe7ia7T+IE65BSSclHGTi9S5JZVxlHTJbBERam4REQBERAERYQGUREAREQBERAEREAREQBERAEREAREQBERAEREAREQBERAEREAREQBEWEAHQewWURAEREAREQBERAEREAREQBERAEREAREQBERAEREAREQBERAEREAXkXOBPuURAf/2Q==;" vertex="1" parent="R19_NycKdf0g5RZ20iZp-26">
          <mxGeometry x="41" width="169" height="130" as="geometry" />
        </mxCell>
        <mxCell id="R19_NycKdf0g5RZ20iZp-17" value="" style="image;points=[];aspect=fixed;html=1;align=center;shadow=0;dashed=0;image=img/lib/allied_telesis/computer_and_terminals/Personal_Computer_with_Server.svg;" vertex="1" parent="R19_NycKdf0g5RZ20iZp-26">
          <mxGeometry y="95.89999999999998" width="62.400000000000006" height="62.400000000000006" as="geometry" />
        </mxCell>
        <mxCell id="R19_NycKdf0g5RZ20iZp-27" value="" style="group" vertex="1" connectable="0" parent="1">
          <mxGeometry x="997.7" y="590" width="238.60000000000002" height="180" as="geometry" />
        </mxCell>
        <mxCell id="R19_NycKdf0g5RZ20iZp-9" value="User Machine" style="shape=image;verticalLabelPosition=bottom;labelBackgroundColor=default;verticalAlign=top;aspect=fixed;imageAspect=0;image=data:image/jpeg,/9j/4AAQSkZJRgABAQAAAQABAAD/2wBDAAsJCQcJCQcJCQkJCwkJCQkJCQsJCwsMCwsLDA0QDBEODQ4MEhkSJRodJR0ZHxwpKRYlNzU2GioyPi0pMBk7IRP/2wBDAQcICAsJCxULCxUsHRkdLCwsLCwsLCwsLCwsLCwsLCwsLCwsLCwsLCwsLCwsLCwsLCwsLCwsLCwsLCwsLCwsLCz/wAARCAC0AOQDASIAAhEBAxEB/8QAHAABAAIDAQEBAAAAAAAAAAAAAAUGAwQHAgEI/8QAShAAAQMDAQMHBwYLCAIDAAAAAQACAwQFERIGITETIkFRcZGhBxQyYXKBsRVSdJKzwSMkMzREdYKytMPwFkJDU2JzotFUo8LS4f/EABwBAQACAwEBAQAAAAAAAAAAAAAEBgEDBQIHCP/EADoRAAIBAwEEBgcGBgMAAAAAAAABAgMEEQUSITFBBhNRcYGhFCJhkbHR4RU0QlLB8AcjJDIzchZi8f/aAAwDAQACEQMRAD8A62iIgCIiAIiIAiIgCIiAIiIAiIgCIiAIiIAiIgCIiAIiIAiIgCIiAIiIAiIgCIiAIiIAiwzVFNTND6ieKFhOA6Z7WAnqGoqOl2isEWc1jXkdEMcr8+9rceK2QpVKn9kW/A0VLmjS/wAk0u9ol0Vbk2vtLfycNXIfZjY3/k7PgtSTbL/Kt/vkn+5rPvUuOnXMvwECes2UONReGWW9FR37YXM50U1G32hK8/vD4LA7aq+O4Pp2ezCP/kSt8dJuXxSXiRZdIbNcG34fMv6LnZ2l2gP6WB7MMH3sWM7Q38/p0nuZCPgxbFo1ftXn8jS+ktquEZeXzOkIubfL9+/8+X6sX/1X0bQ38fp8nvZCfixZ+xa/5l5/I8/8ltvyy8vmdIRc7btLtAP0sH2oYPuasrdq743i6mf7cOP3CF4ej3C5r3/Q2LpHaPipe76l/RUhm2FyHp01I72eVYfFxWyzbJv+Lbz6zHPnwcz71plpdzH8PmiTDXbGX48eDLcirke11ofjlIquM9OWRvaPe12fBbsW0NglxitYwnomZJHj3ubjxUaVpXjxg/cTKeo2tT+2oveSyLFFNBO3XBLHKwn0onte3sy0rKozTW5k5NNZQREQyEREAREQBERAEREAWhdrhHbKKWqcA5+RHAw5AfK7gDjoG8nsW+qfts9wjtDMnS59U8jrLRGAfEqVaUlWrRpy4Mg6hXlb206keK/8KtVVVTWTPnqZXSyuJ5zuAHU0cAPUFhyFj1FMlXiKUViPA+Xy2ptyk8tmTITIWPJTJXo87JkyEyvVNEaiZkWSA7JcRjLQBnO9T0VvoYm5MQe750vOPdw8FX9V6QW2mSVOonKTWcL5li0ro5dapF1abUYp4y/0RX854fFM9qnZdLQQ0NA6mgAeCjpiDnKr0emsZS30d3+30LhH+Hkpwyq+/wD13fE08pkLy9zQeHd/0vmrqwR1hW3T9Vt9Qjmk964p8Smax0dvNHkvSF6r4SXB/qn3o95CZCx6kyV1DgbJkyEyFjymUGyZMhMhY8lMlMjZN2irqu3zNnpZCx49IcWSN+bI3gQulW6thuNJT1cWQ2UHU07yyRp0uYew/wBb1yjKvWxb3Ooa9pPNZW5b6tUTCVw9XoRdPreaLP0fuaka3UZ9V+TLSiIquXkIiIAiIgCIiA+r4iIAqbtwcCzdtZ8IlclS9ujgWXtrfhEp+nfeYePwZytXWbOfh8UU3Kal4ymVcsnz7YPepMrxlNSZGwTNni1OmmPRiJv7zvuU3IcNA9S07ZDyVNA0jDi3lHe0/nLPM7ivhmt3Xpl/UqJ5WcLuW76n3jQ7P0SypUcb8Zfe9/0NOZ3FR0zuK25ncVHyuUOlEt1FYRqSvDQ5xxhgLjnqG9fbY176Myz5c55AZqO9usl+7sGO9ade4mIRN9KokZCOwnLj3KZhYGRUsQHos5Q+oyYwO4NVstpytLGdaDxKbSXct7+R8/6W1Y3F1StXvUE5Pve5eW8xupZsZjGsdX94e5YHB7fSa5vtAj4qaiG4LYCl23SyvSWzWgp+3g/1Pn1XSKU3mm8eZXAS44aCT1NBJ8FsR0lZJjERaD0ycwdx3+CnxuG7wWvUyiGGeY/4cbnDPXjAWyr0urz9WhSSftefkYhosE/XlnyIF2A57QQQx7magNxLTjIXzUouikmnmnle9xjjaWxtJOkF5zuHDgPFSGVfLac5Uoupx5nFu6EaVaUY8D3qV62IOaO5fTG/YsVCyr3sMfxO5/TW/YsUTVPuz8PiT9Fji7j3P4FuREVRL6EREAREQBERAEREAVK27OBZO2t/kq6qkbendZO2u/kqdp/3mPj8Gc3VFm1n4fFFKymV4ymVb8lG2D3lZqaPl54Ieh72g+yOc7wWtlZ6aqfSyOljiEs3JvbEzDnHUccGs3nq96jXbqKhPqVmWHjv5Eqzp03cQVZ4jlZ7uZc4xhu4di15WSnOI3nsaVWXR7dV4Dnk0sR3hrpG04A9lmX961ZLBdd5mr2l3E8+Z5z2uwvmVDorXlvqTSfv+R9Vn0kt6TzCLfkTtRrb6TXN9oEfFR0pUeKe80n5KukIHFpJew9rXEjwWQVmrm1sYhd/nwgugcf9bBlzT6xu9S9V+j11arbj6y9nH3HVsOlNlcSVOo9hvt4e8xtYam5U0I4RNBcep0u4n3DJ9ynm8+RzwNxcdI6m8AO5Q1maXmurHDe8uDPUZCY2+Acp2FvBNWfVKnbL8Ed/e978sFIu7j0u6rXP5pbu5bkbLBgBZgFjaFlaq42R4o+ngoLaKo5KiEQPOndj9kbv67FOOPFU3aGY1FdHTNP5MNj3fOO4n4rraPb9fdwXJb/cJy2U5dhjoGcnTsPTITIffuHgtrKxjS0NaODQAOwbkyvr8VsrBTanrycu0yZV82FOaO6fTWfYsXP8q/bB/mV1+nM+xYufqb/p34HT0iOLpdzLiiIqoXUIiIAiIgCIiAIiIAqPt+cCx9td/JV4VF8oG4WLtrv5Km6f95j4/BnP1JZtpeHxRR9S+6l4ymVbclO2D3lWSx0+IWSEc6Ul5ON+knDR/XWqy1rpHMjb6UjmsHa44V6oomxRjAw1jQ1vYBgKLczxHCJlpTzPJkqHADHVuURUO4qQqHcVEVDuKjUYk2tI0ZncVHSytYW6iAHODN/W7oW5M7iouRr6irpadm9xcCPacdDVLclBZPCgpQaaJCN9VRwxvEB83lIfG04Yx+CW5a7oPHGfvUpR3G3zEMEojl4GOf8ABvB9+4+4qTZFERyOlromsbCGuGWuYwBoyCteo2YoKoZje6E/NIEsfuDiHD6y+VXGuabfVH6WnTlndJb01yyuOcdhZHotzbwSpPbXZweeeOWO82WjPDBB6QQR3heyWsBL3NaOtzg34qF/sbcGnEFxYxvRgzt8Bn4r03Yid5zVXZxHSIonOJHtSux4LQ6enJbXpSa9kZGuFpcZx1b8jNVXq1U2c1DZHj+5DzzkdeFUY3mqrZag5IBc/J45O4ZVnuGz1gtVBNMRLNNua2SqlOGnrayPS3PDoKgI3RuYDGAGbwMDSNxxkBW3oxCzrRlcWzbSeMyWM9yOdqkKlslTmt78jNqTUvGUyrvkrWwetS6BsCc0V2+nM+wYue5XQdgN9FdvpzPsGLnak/6d+B09Lji5XiXNERVYtwREQBERAEREAREQBUTyhcLD21/whV7VC8onCwdtf8IFNsPvEfH4MhX6zQl++aKJkL7kLxkJkK05KtsknZ4eWrWEjmwtMh9o8xv39yugGiIDrVZsfm1LTvqqqaKFk0h0umeG5ZHzRgHed+ehbtVtPYGc1k082N34CB2n3GQtUCu3KWCfbw2Y5NmofxURO7eVhk2itchI01jR1mKI94Eixed0tT+Qma8/MILZPqu392Vtp4PE4SbyYJnL5YYzPcJqkjLadr5G9o/Bx+Jz7lr1cmiOU9OC0dp3Ka2ep+SoeUI51RNu6+Th3fEu7lx+kN36LYTkuL3Lx3fDJ1dNoddcQjyW9+H1wT8DOCkoxgBakDeC3mgbl+fq8tupg+g8EZGhJCvTdyxPI3k8BvPYN631ZdXSwuZpSyylbaVZJo6NvrlePWOHxHcoFgDGMaP7rQF7u9R57eKl+ctjdob1czefFY8hfeejVl6Dp1Om+OMvve8+d6xW6+5k1wR6yF9yF4yEyFY8nH2T1kLofk+/Mbv9PZ9gxc6yF0TyeH8RvH09n2DFz9Rf8h+BP06OK6LsiIqyWcIiIAiIgCJ3J3IAidydyA+KheUX0bB23D4QK/H3Ln/lH4bP9tw+ECmWP3iP75ES8WaMv3zRQshMhY8r7lWfJXtk+SMbIW6iebwxj4lfBDCOjPaSvuUyvOFxM7+B95OH5je5eTFEeDcEcC0kEdi+5TKYXYMMTOqJGsY53KBrtWp3pnA3Bx6VeqKOJsFIyF7ZI44Y42vYQWucAC4g+skqi5WanrK6kfylLO6N27U086N/tMO5V3X9JqanQUKU8Nb8Pg/3+p19Mvo2lRyqLKax3HTIW4GVtNCpFLthLEA2sodXW+mfjP7L/wDtb7dtrQB+b1eerSz46l8jn0Z1OlVe1Sb9qwy3x1O1qRyprx3FsOAFGXWqbSUFZOTwjcG+s4ycKu1G3LCCKahfnoMz2jwblV+vvd5ubXRTOayB2MxsbgEA5GXOyV1rTorfXFeEq0dmCaby978FkiVtWt6cXsPLPVmtz7lJM50jmue9zWBmNT3h0WslzgQAOUb0b9/VzsU7GxSFjXiRhbHJG8DGqORge0kdhWOmnmpWFkZYWuLXPZIxr2F7Tqa7S4cR0FfJJZZpHyyPL5HnU5zuJPu8F9kpxlHdyKRPEt/M+59SZWPPrTPrW7LNWyZMro3k7P4jef1gz+HjXNc+tdI8nP5hef1gz+HjUDUH/IfgTLGOKyZeUTuTuVbLAETuTuQBE7kQBERAEREAXPvKT6Oz3tXD4QLoK555SidOzvbcfhApdl/nj++RHuVmkyoWKhpLpdaK31U0sMdVyrWyQ6NfKtYZGt/CAjBwehak9LPFWS0AGahlY6iAxxl5bkR4rxSVb6Groq1vpUdTBU9ojeHOHvGR71d6i3Qnb6mn3CjdENoS/i3k4oca/rgFdypVdObzwx5o5cKSlHct+SJ2j2eo7NDRz0dXPUxvqamjqXTCMcnPEAQG8m0cedx6lpW+20k1pvF4rZZ2wUFVRU0MUJY3zh0j2GVpc4Z3NcMYIUjT1Tr1s/to2TfNTXFm0MI6QyZxEg7AA7vXyf8AErDsHbiAH3K5xXmqY4cWyVDGxBwPQQ7/AIrSqk1FQk9+fLGTY6UXLaS3Y+hAXCa0yVcz7bHJDQvLBTR1EmuQYYA7LtTs5OT6RWrykZOkObqzjAcM56sLokdNbX7X7cQ1FPGaRlkY58bGNbpYYYS8x4G4kZ3jHFaGzt8F2uMFkq7Zaxaq6KeKKmgpms830ROlZpfnJ3AgnjneMYXpXL2fVjnCT4+ww7dZ3vi2UsvY0ZcQBwy443+9TuztDb6+DaqSpibMaGzS1VI7W8COZrZecNBAPAcVJUUUGz1huF6ZBDUXKe71NpoZalgkbTRQSSRl7WHdqOhxPaOgYO1Yrr8qUG2slVBTi4xWKo11VPE2HzindHNhszGYYXNIODjg7HQsVa8pQbit2cZ9xmnQSktrj2FFMjGganNGfnEDKa4yC7LC0cTkEDtKtz5Y9l7Hs/LR09M68Xun8+qK2oiZM6CHDHtihDxgekB7icEnI9xVcV5stwvM9LStvGzdVSVb5oIWRtraXUHmOaMDScgOHDoGMZIXv0h42tn1c4/T4mv0dcM7ynhzcAjGMZyMYwge129pBHDIOR4K33a0QVW2Fohp42+Y3g0VyaIwGs82azlJuG7eGH6/rWDaeSludttt8oaeOMCuuVqlZCxrWlzJXPpshoG9zRn9pZjcJuKxx8v3gO3wm+wq2tnO5zeb6W8bu1BJGQSHMIHEhwIHauiRQWamuNJYnsoPP7XYIo7ea+Nhp33eobre6XdvdgRlufnHG/jXbpU3+KppKS/0tNTSRSSywVLaSJgLuTMbXCSAaXMaSDjGQcEjdhYhc7bwl5/AzK3UVnJDUgoX1ULK+WohpDq5Z9Mxr5mjQS3Q14xvOM7uCnKe37E1dTS0kFyv756qaOCFvmtMMvecbyW8BvJ9QWheaqjqDGYAwHW4saHslfHHl+Q+WM6Dqy3SBwDd+85fJbJRx0Ud72nqGh0VpgfTUTXcJa6ZoBA7AWt/bPUsVZvY28tPs9pmnBbWzjJFXuipbZdK6gpp3zxUzo2cpJo1l5ja57ToAG4kjh0K8eTc/iF6/WLP4eNc1kllmklmleXyyyPlleeLnvcXOce05XSfJt+YXr9Ys/h41rvMq3xLjuNlul1uUXtERV86wREQBERAEREAREQBc78pmdOzp/1XEe/EBXRFXdr7JJerS5lOAa2kk86pRuHKENLXxZPzgd3rAUi2moVYyZrqx2oNI4xkdPA7j2K7/Lto/s2yU1Tfl5tiNh5HEmvkXThhdqxp9EauPiqKQ5pc1wc17XFr2uBa5rmnBa5p3gjpTPrXfqU1Vxnkc+OYZwT2zNdRUdxqY66VsNvuFtrrdVvcHENbKzLSQ0E8Rj9pZb7cqGrv9ufSzB1utxtFLTS4cG+b0z2SPdgjO4l3R0KuZPWmSsOknU6wJtR2S+G9WX+0e2lb57H5rX2U0tHLpkxNNyMTdDRpzxBG8Ku7LVdJQ360VdZM2GngM5lkeHEN1U0jBuaCd5IHBQuT1pk9awqMVFxzxWPLBlybafYXCmuVluNvvViuNb5pG67VVztNcY3yRNdJM95ZI0b8HJI4ekd4Ld+S11OzNmotpqMXNlZV3C01MZqmQyRU2vQ9kVJA1wLiTqc5ziQN4HRupeT1pk9a8ugmmsvDM7fPG8twq7Nf7JaKCtuEdtutnYaenmqmOfS1VMQGgOczGDgN6eI6Q7d4nrLNZrFX2e31zbjXXaaN9xqoY3R00UUeMRRauPDHTxJ3bgqpk9aZPWs9Ss8d2c4MbXs3l2o75aWbPU8ss4+XbbbLnZ6KIh+t0VVJE1kocBp5rR19B69+psrX2WKGvt95qGw0nntsulK57XvaailkBczDATvDW+Kqm/rTJ61h28cNZ4mdt5T7CbPmV9rrzV111gt0s9Ry9OKqCWaKRr3Pyxzozu0AMA//ABSN5udvbYLZY47i67VVPVGpkreTkZFCzDw2CIy88gZAG87h7hU8nrTJXt0k2t+5HlPCftPRccHAycHAJ4nqyrLerhbYbNYLBa6llRDTtdWXGeJrmtmrXk5HPaDuJcfq9W6sZKZPWvcoqTTfI8rcmlzPWpdN8mmfk+9nG75SYAejdTRrmLGyyyRQwxvlnmeI4Iohqklkdwawdf8AXQu4bLWZ1js9LRylrqp7n1Va5vomolwXNaepow0ez61Cv6iVPZ5s328HtZJtERcMnhERAEREA7k7kRAO5O5EQDuTGepEQEDeNk9nb1IZ6qmdHVEAOqaR5hmeBuGsgaXerLSq3UeTGidk0l3rI+oVMME474+TK6Ei3wuKsFiMjw6cXxRyifya39mfN7hbZx0cq2op3HuEg8VGzbCbaRZxQ08wHTT1kJ8JtBXaUW9X1Vcd546mJwaXZna6E4fY7gf9pkcw/wDS9y1JLZe4fytqujOvVQ1QHfoX6Ewi2LUJ80Y6lH5ydHOzOuCoZ7cEzf3mrGXAcTjtBHxX6RXwtaeIB7QF7+0X+XzMdQu0/N/KM+e3vX3UDwyfZDj8Av0doj+Y36o/6X3SBwAHYAn2j/18x1HtPzm2Oof6FPUv9innd+61bMdqvs35G03WT2aGq+JZhfoRFh6i+UR1C7Tg8WzG182NFjuA/wB0RQ/avCkItg9tJTzqOlgB6aisi8RCHrtGEWt39Tkkeupicpg8ml+fjzm5W6EY3iGOedw97uTClafyY29pHnd3rpesU8VPA0/WDz4roKLVK8rPmelSiuRC2fZfZ+xkyUNLmpLSx1VUPdNUFp4tD38B1gAKa7kRRpScnmTye0kuA7k7kReTI7k7kRAO5ERAEREAREQBERAEREAREQBERAEREAREQBERAEREAREQBERAEREAREQBERAf/9k=;" vertex="1" parent="R19_NycKdf0g5RZ20iZp-27">
          <mxGeometry x="10.600000000000023" width="228" height="180" as="geometry" />
        </mxCell>
        <mxCell id="R19_NycKdf0g5RZ20iZp-14" value="" style="image;points=[];aspect=fixed;html=1;align=center;shadow=0;dashed=0;image=img/lib/allied_telesis/computer_and_terminals/Personal_Computer.svg;" vertex="1" parent="R19_NycKdf0g5RZ20iZp-27">
          <mxGeometry y="110" width="45.6" height="61.800000000000004" as="geometry" />
        </mxCell>
        <mxCell id="R19_NycKdf0g5RZ20iZp-28" value="" style="group" vertex="1" connectable="0" parent="1">
          <mxGeometry x="570" y="550" width="192" height="235" as="geometry" />
        </mxCell>
        <mxCell id="R19_NycKdf0g5RZ20iZp-3" value="Attacker Machine" style="shape=image;verticalLabelPosition=bottom;labelBackgroundColor=default;verticalAlign=top;aspect=fixed;imageAspect=0;image=data:image/jpeg,/9j/4AAQSkZJRgABAQAAAQABAAD/2wBDAAsJCQcJCQcJCQkJCwkJCQkJCQsJCwsMCwsLDA0QDBEODQ4MEhkSJRodJR0ZHxwpKRYlNzU2GioyPi0pMBk7IRP/2wBDAQcICAsJCxULCxUsHRkdLCwsLCwsLCwsLCwsLCwsLCwsLCwsLCwsLCwsLCwsLCwsLCwsLCwsLCwsLCwsLCwsLCz/wAARCAC0AIcDASIAAhEBAxEB/8QAHAABAAICAwEAAAAAAAAAAAAAAAEHAwYCBQgE/8QAQxAAAQQCAQIEBAEFDAsBAAAAAQACAwQFERIGIRMxQVEHFCJhgSMyQmJxFSU2Q1J1gpGho7G0FyQzNVNUZHKzweHT/8QAFAEBAAAAAAAAAAAAAAAAAAAAAP/EABQRAQAAAAAAAAAAAAAAAAAAAAD/2gAMAwEAAhEDEQA/ALWJOymyh8yiBspsqEQTspsooQTspsooQTspsqEQTspsooQTspsooQTspsqFKBsoiIBa7fkU4u9isiIMfF3sU4u9isiIMfF3sU4u9isiIMfF3sU4n2KyLrM2+/WpPv0WmWfHn5p1cEj5us3/AG8A/WLdlnb85rfTYIffxd7FOLvYro5upKMdbCZmOZkmByLm1prPl8pLMdQyy+zeQMcm/IkeWjvYPZBj4u9inF3sVkRBj4u9inF3sVkRBj4u9inF3sVkRBj4u9iiyIgIiICIiAten6z6QqWrNG5kflrdaV0U8NmvajLHDv8AnGPgQRoghxBB36ro+u+peounn1Bj7OIEVpg1FLG9+RjcOW5ODpOBjOtA8Ox7d/NVJlMtk8xadeyVjx7HhtjMnhxRARs2Q3jE1rdDZ9EFnx/E+tVyd+pdgjt45lmQU8hiyduruPJniQykbIBAcQ4dwdBZcd8TsU6/eq5Jpjp/NzihkII5ODqxefD+ZgI8QHWtkA/cNVVVsVnLzBLSxWTtRHepKtOxLGdez2t4/wBq5T4bqGqx0trDZaCNo2581Gy1jR7l3DX9qDdr89Dp69kKYkZe6G6qbLJ/qb2zMpyu4+I6uW7HOM8Xa9W8fVi7jo3qabHWo+lM3YZJwEbcJkA/lDbryDcDBIToteNGI7/UPdoBqIEEbbrR77HkT+CyOllfFDC97nRQeJ4LHHYjEjubgz1AJ769yT5k7D1EirDorr8Sivh8/Nqb6YqWQlPab0bFacf0/RrvX1795LPQEREBERAREQEREBYbUVmavYirWTVsSRlsNhsccphefJ4jk+k6+4WZdT1Bj8llsZYx1C8yi63qKxYdE6Z4rOB5sja17NF3YE78t+p20PPuWO8nkv3xkyerD2fPyBwda4/T4mnOcdeg+rWh27HQ334edHUb8Az+VibPCZXx4yrKA6B3hO4PsStPZ3cFrAe3YnR2ONe3a7Kd2/UZMJmVLdis2ZreAlEMjo+Ybs6B1vWyr56GfDJ0n02YSOLafhv16SxyPZID997QbIAAAANAAAAdgAPQBERBqnUPQvT2dbLMyFlHJHZbcqsDeb/+oibprx7+R9iFSmXw+Twd6XH5GLw52DmxzCXQzxE6bLC8gbaf2bB7EAjS9LLoOqum63UuNfWcWR3IOUuPsOB/Iza7tcR34P8AJ4/YfNoQefa9eW3Yr1YvD8WxIIY/GkZHGXu7Brnv+kb8hs+ZHvsW98O+pbNtljp7KukGQxzX/KusbbM+CI+G+CUP784j299f9hJqW9Qv421PRv1n17UJ1JFKPQ9g5pHYtPoRsFZIctk6uQqZaOdxv1HRPjmk7uf4bPDDZj2JBb9LiTsj19UHplF89KazPUqzWqxq2JImPnrmWObwZCO7BLES0j2I/wDg+hAREQEREBERAXCXxvCl8EMM3hv8ISEhnicTx5kbOt632XNEFA9V9JWemG4h81wW35BtkzyNjLGMsRlrixuySQQ7zPno9h5DtPh/1bFhZ5MVkZAzGXZvEhmedMp2nANJeT5Rv0Nn0I35OJFqZzAYzqCLHQZBr3Q070d3gwgeNxjfH4Uh8+B5fVojyVadVfDm7TfNe6fifZpOLnyUQS+1X3s6g33ez2G+Q/W9AuEEEAg7B7gj1CKjel+vMpgOFC8yS5jIneH4Tjq3S4nRbCZNdh/IdrXoW+Rt/EZ7CZ2HxsZcin0AZYvzLEJPpLC/Tx/Vr2JQdmiIg6rN9P4XqCuK+Srh5YHeBPGQyzXcf0opNbH3B2DruCqO6n6WyXTNlsc58ejYLhUuNbpkuhsxyt76eB5jej5jyIb6GXSdVUqN7p7Ow3OIijo2LTZHa3DLXYZmSAn2I/xHqg0Lorr6CpBBh89KWQwtbFRvv25rIwNNhs67gDya727HWtm1wQ4BwIIIBBBBBB77BC8+9KdKZDqa3ATFJHiI5GuvWyHNY9jT9UFd3bbz5EjfHez6B3oIANAa0ANaAGgDQAHYAIJREQEREBERAREQEREHQ5zpLpzqAF96rwt8eLbtUiK03Xlt4BDgPQODgq2yfw66qw0rbuEsuvCEl8b6rjUyMWu/0tDtH+i/Z/kq50QU/hfiTm8dN8j1FWkssicI5ZDH8vka/kPysTg1rtfcNP3PkbVx2Sx2WqRXcfYjsVpd8Xx77OHmx7TpwcPUEAr48305geoIfDyVVr5GtLYbMf5O1Dv/AIcoG9fY7H2KrKfH9T/DbIjI1Hm9hLEjI7GgWMlYToR2mDYbIP4t47b7fpcCFyLFYr1bUMle1BFPBKA2WKdjZI3je9OY8EEfgsWPv08pSp5Cm/nWtxNmicRo6Pm1w9CDsEe4X1IIYxkbWMY1rWMaGsawBrWtHYAAdtKURAREQEREBERAREQEREBERAWKxXrW4J61mJkteeN8U0Ug2x7HDRa4LKiDS+ja1jCZHqvppz3vp0p6uSxbpCS75W6H7bs+xbo/fkfVbovjFGNuTlyYcfFloQUHN1+hDNJM07/puX2ICIiAiIgIiICKUQcTvR0ATo6BOgT9zo/4Kvsv8Rb2Dvz46/04GzxBrw6LJh8ckb98ZI3GsDo/cA9vLsrCVI/E8a6mZ98VSP8AeThBZnTfVFbqDE3ctLXFCGnZswTiWcSsayCJkzpTJxaNad37ei1Ox8Wqkcs4r4SWWux7xFNJcELpIwezzH4Ltb89bKrxmbuRYB+AhJZXsZGbIXHh3efbImRw6H6ILeR9zr+T9W0fDzpWHMWn5e9wfQxtgRxVyQfmLjWtkBmb58GAtOvU/YEOC2MLeu5PG1L1zHux8tlplbVfN40jIifodIeDdFw0da7b9+w1vqXra70zcir2cGyaGy2SSpPFkdeIxhDXB8bq+w4bGx3HfsT6bqqC68zDct1FkHseHVceP3Orka0RA5xleNdu7i7R9gEG+YT4l1ctlMfjZsU6mLshgZObgma2UtJjaW+E0/UfpHfzI9+27ZCfIVqk01Cky9ZjHJtZ1j5YytHmGSFjxy9gQB9wvNT47lOaMPbLWsx/L2I+YLJIy5rbEUg/AtcF6N6fysebw+LybNB1mBpmaPKOwzccrPwcCEGgH4usDS49PO7An/eI32G/+XVnQyiaGCZoIEsUcoB8wHtDgCvLs3b5ge3i/wDtem8ad47Fn3o1D/ctQa51R1fe6Ymr+NhW2adoubWsx3wxxexoc5kkToCQfUfUQR6+gx9K9cs6nyFqiMY6oYKRuGQ2hMHASsi48RG333vfour+LAH7l4M+2TkH9daRa98Kf4Q5X+ZXf5qFBc6IpQQiIgIiICpL4ofwli/mml/5Z1dq0XqzoSz1JlI8hFk4arW04apjfVfKSY3yP5cmyN8+Xt6IKjr4fK2cXkszDByx+Pmir2JeX1c362WtA7hu28zvtyH349x0V1Gensuwzv1jL5jr5AH82PvqOz/QJPL9Un2CtnpbpcYDD38TasRXo7tqzPN+RMTHRzwxwuicxznbGmnff1+3fTp/hLMZpzWzcTa5keYWT03vkZESeLHvEoBIHYnQ3+KDeuqsy3CYHJX2PAndH8vR0R9Vmf6Iy30PHu8/ZpXnYa2OQ5tBaXBxOngHZDiDvv69/VXLkehc7ksPgMRP1BC6PE+Pp7qUpMwdpsXP8v8Axbdtb9j+Knp34bY/F2bFnLSVMsDEIq8M1QCCIl23yOZK54LvID27+/YKuz2bn6gusvz1aleZteKs5tMSBj2xF3Fzg9x7gHX7APZbz8KcwGTZPBSu7TfvjSBPbm0COdg/aODh+xy27NdD9N5LH2atPHY3H23Fj4LdWlEx8T2OB7+EGktI2CN+v2Wu4f4a5PEZXF5OPOwF1KyyZzG0pGmSMgskj5GY65NLh5eqCppgS6wB5l0oH4khXDR+JnSlenRryQ5XxIKteF/GvEW8o42sOj4vl2XUu+Et4ueRna+i5xANGTeid9/yyj/RJkPXO1fwoy//ALIMfXHUeK6kwVCxjhZDKmabBKLMYjdykpyyNIDXOGvP1/8AvzfCn+EOV/mV3+ahXeD4Y2W4ebG/uzD4smUhyJl+TfwDY60lfw+Hjb78t736eS7PpDoaz0xkbd6XJRWhPRNMRx1nQlpMrJeW3SO9teXr9u4bwiIgIiICKOTU5NQSi48mpyag5Io5NUcmoOSKOTVHJqDki48mpyag5Io5NUcmoOSKOTVHJqDki48mqeTUEoo5NRBwPmVCk+ZRBCIiAilQgIpUICIiAilQgIpUICIpQQilEEkDaaCIgaCaCIgaCaCIgaCaCIgaCaCIgaCaCIgaCaCIgaCaCIgaCIiD/9k=;" vertex="1" parent="R19_NycKdf0g5RZ20iZp-28">
          <mxGeometry x="57" width="135" height="180" as="geometry" />
        </mxCell>
        <mxCell id="R19_NycKdf0g5RZ20iZp-20" value="" style="shape=image;verticalLabelPosition=bottom;labelBackgroundColor=default;verticalAlign=top;aspect=fixed;imageAspect=0;image=data:image/jpeg,/9j/4AAQSkZJRgABAQAAAQABAAD/2wBDAAsJCQcJCQcJCQkJCwkJCQkJCQsJCwsMCwsLDA0QDBEODQ4MEhkSJRodJR0ZHxwpKRYlNzU2GioyPi0pMBk7IRP/2wBDAQcICAsJCxULCxUsHRkdLCwsLCwsLCwsLCwsLCwsLCwsLCwsLCwsLCwsLCwsLCwsLCwsLCwsLCwsLCwsLCwsLCz/wAARCAC0AIsDASIAAhEBAxEB/8QAHAABAAIDAQEBAAAAAAAAAAAAAAYHBAUIAQMC/8QAUhAAAQMDAQQFBQoKBwUJAAAAAQIDBAAFEQYSITFBBxNRYXEUIjKBtBUXIzM1NkJ1gpEkUnJzlKGxs8TSNFRikqKywSVDRVVjRFNkg5PD0dPx/8QAFAEBAAAAAAAAAAAAAAAAAAAAAP/EABQRAQAAAAAAAAAAAAAAAAAAAAD/2gAMAwEAAhEDEQA/ALVpSg8N9ApUevGstJ2MrbmXBC5KMgxYWJEgEfRWEHYSfylCoJcel58lSbRaGkAZCXbk4pxR7yywUgf3zQW5XuyrsPbv3ftrneb0ha6m5Buq46DnCILbccDwUgbf+KtG5Ov1yWQ7MuU1xXEOPSH1nPcSTQdMvXC1xv6TPgs449fKYb/zqFYS9TaRb9PUFm+zOjq/yKNc9M6a1XI3s2O7LH4whSAn+8U4/XWejQmu3MFNjljP45Zb/wA6xQXgdYaLH/H7Z6nwf2CvU6u0Yrhf7V9qSlP+bFUn73vSB/yVz9JhD/3aHo+1+ONke9UiGf2O0F6t6g0u7s9XfbOsngEz4u19xXms9p+M+MsPsOjtZdbcH+EmucndFa3ZyV2G4HH/AHTQd/dE1r3bPqGEdp+2XOOU/SdiyGsespFB1DgjiCPGlcxRdRaogECLeLmyEn0EynuryO1tSin9VSSD0oa1ibIkOxJyBuIlx0pXjuXHKDnxzQXzSq1tnS1ZHylu6wJMJRwC7GUJLI71JIS4B4BVTy3XazXdov2ydGltgAr6hYK288nGzhY9YFBnUpSgxp06FbYcqfNeDMWK2XHnFb8DgAAN5JOABzJqj9T9Il7va3o1vW5b7XvSG2lbMmQnhtSHU79/4oON+DtYzUq6X5T7cHTkNCiGZUiY+8AcbSo6W0oz4baq03Rjpm0XZVwulxaEnyF9liNGdSFMbaklZddSdysbgAd3PfyCLWXR2qb9suQoSkxVH+lyz1MbxSpQyr7INWDbOiO3NhC7vdH317ipmChLLY7i46FLI+ymrPAAAAAAAwAAAABuwBXtBHYWitFW8J6iyxFqG/blpVKXnt/CCofqrftNMsJCGGm2kDgllCW0gdwQAK/dKBnPb66UpQeV7SlApk9p++lKDEl220z07M2BCkp4Ykx2nfuK0k1Gp/RxoidtlEFyE6ofGQHlox4NubTf+GphSgpu69ElyZC3LPcGZSRkhiWnyd7GOCXAS2T47NQV6NqLTc5HXNzbbOaJU2sFbSzjiW3E+aR4EiunaxLjbbZdYzkO4xWpMdecodHonhtNqHnJV2EEGgr7RnSObi7HtN/LaJjpDcWckJQ3IcO4NvpGEhR5EYB4YB3mza5l1La2rHfrvbI7i1sxJASyteNvYUhLqQojAyM4JxyroCyXOXJs1ikPFK3n7ZAedWRvU44whalHfzJoIH0x/F6S8br/AA1ZXRB8l376wY/cmsXpj+L0l43X+GrK6IPku/fWDH7k0FmUpxwBx5VWWrekxEB163aeDL8hslt+4OAOMNrG4pjo4KI/GO7dwOcgLOAJ4A02VDl92/8AZXMkudq68FUiXIu0xJ37R8oWyOfmpSNgDwArAjTrnCcDkSXKjOpVkKYecaUCO9BBoOqaVTWmelGfGcaiaizKiqKUCahAEpjll1KcBaRz3Z8eFXCw8xJZZkR3UOsPtpdZdaUFIcQoZCkqG7BoPpSlKBStNqHUlo01C8rnrKnHNpMSK2R10lxPEJB4JGRtK5d5IBpK+a+1ZelrSJa4MMkhEW3rU0nZ/wCo4D1ij25OO4UHQ+yrsrwgjjurlVs3CQ7loyXn/S+D6xxzx83JqQWzV+tdPOtp8qlKaGMxLmHXWVJHIJdwofZUKDoqlRrS2rrVqiOssjyeewkKlw3FAqQOHWNK3bSO/GRz45VJaDnXpA+eGo/z7Hs7VXFp75v6a+p7Z7M3VO9IHzw1H+fY9naq4tPfN/TX1PbPZm6CI9MfxekvG6/w1ZXRB8l376wY/cmsXpj+L0l43X+GrK6IPku/fWDH7k0Et1HFv10YTZ7W4IbMtCvdK5ObyzGPmliM2khSlr5nIAA45Vux7JofSlkS2pqEiVLSATKnpS+7tDmhKh1afUn1mpPXxkSYkRovy5DEZhO5Tsl1DLY8VOECg+w3AAbgBgAbgPACo1qXR1j1Gw6XGW41x2T1E5lAS4FDgHgnG0ntzv7CK/a9baGbUUKvsEkHHmdatP8AeQgj9dbOBebFdN1uucGUrGSiO+2p0DtLedsfdQc03O2T7PPlW+c11cmMvZWN5SoEZStB5pIwQanPRtq5y3S2bBOWpUCe+EQlE58llOHASM/QWdxHInPM1NdfaOc1JGjyrelsXaEChIWoIEmMcq6krO4EHejO7eRzyIVpTo81J7sQJl3i+RQ4ElqUvrHGlOvrZUFpbbS2o7iQMk43dp3UF2Vh3O4w7Rb51ymEiPDZLzgSMqWchKUJ71EgDxrMrV6gtIvlmulqLgaMtkJbcIJSh1taXUFQG/GQM91Bzvf77cdQ3KRcZqvOX5jDSSS3HYSTstNg8hz7SSedbvROjXdTyVvyVLZtERYTIcRuW+7gK6hkndnG9R5Ajtr9MdG2t3JqYrkJtlnrNlcxb7Ko4Rn007Kts9w2c+HK8bTa4VmtsO2xE7MeG0EbRABWrG0t1w8MqOSfHuoP3b7bbLVHRFt0RmKwgABLCdknHNa/SJ7SSTX2kRosttbMthmQysYU3IbQ6gg9qXARWplas0dCWW5F8twWD5yWnuuUk9igyFb6RNV6PnLDca+W5ThICUOPBlSjwwkPhOTQaKdoCJHmM3fSz/uVdYyy602orXAePNtaN6kpVwOMjB4dkwhvSH4sd2TGVGkqQPKGCpKw06NykpWncU59E8xjhWR38jvB5Ed1eUHO3SB88NR/n2PZ2quLT3zf019T2z2Zuqd6QPnhqP8APseztVcWnvm/pv6ntnszdBEemP4vSXjdf4asrog+S799YMfuTWL0x/F6S8br/DVldEHyXfvrBj9yaCx5HlfUSPJCwJXVOeTGSFlgO483rQ2QrZzxwa5z1W3rJFxcVqYS1SFKUGnHd8Ypzn8FKfgtnuT+2uka+brLEhtTL7TTzSxhTbyEuNqHehYI/VQco76+0ZMtb7CYaX1SisdQIwWXiviOrDfnZ8K6QXpHRji9tVgte0d52Y6UD+6jA/VWwhWu0W1JTb7fDiAjCvJWG2ir8pSRk/fQabRqNYotSRqZaC+SPJQ4dqalnfulLSdknhjn2nO5Mkr2lApSlAqouktrXq33VKLi9ODeym3BfVJGOM1KfO2u8+b2YzVu0oOTaV05K03paatTsqy2x11RypZjNpWo9pUgA0i6c0vBWl2JZra06nBS4mM2XEn+ytYJH30FedGjWvEONqWXEacIJWm4heFbvNMFKvOBzxPo8eJq2aUoOdekD54aj/PseztVcWnvm/pr6ntnszdU70gfPDUf59j2dqri09839NfU9s9mboIj0x/F6S8br/DVldEHyXfvrBj9yaxumIHqtJq5BV0ST3nyc1kdECh7m6gTneJ8ZRHcplQH7DQWbSlKBSlKBSlKBSlKBSlKBSlKBXlK9PPProOdekD54aj/AD7Hs7VXFp75v6b+p7Z7M3VOa+UFaw1IQcjylpPrSw2k1c2nW1nT+mjj/g9s9mboND0swy9p+BLSMmFckBfc3IbUgn7wn76j/RDNS3cL7b1HfJhsSmweGYzhQoDvwv8AVVmamtpu9gvluSnacfhuKYHa+z8M0PvSB66oPSF09xtSWaY4opZEgR5WdwDD4LKyrPIZz6qC99RC7xo3uvZ/hJtuQpx6GrPU3CGPOcZUkb9tPpNkbwcjftkH9ae1JZ9SQxJgO4dQEiVFcI6+Ms8lgcUn6KhuPcdw3XA7uR3VSWsrZcdGahYvtkWuNFnrcdZLfxbT5O09GWn0Sg+kkEYwcfQoLtpUR0jra26mbTHcCIt3bQS9FJ8x4JG9yMTvI7RxHeBky6gUpUP1prSLpmOY0YtvXqQglho70RkKG558f5Rz8BQSSRdbLDdLEy6W2M+EpUWpMuO04EqGQShagd/LdX2jSoUxvrocqNJZ2ijrYrrbze2ninabJGRXLMqVKmyH5Ut5b0l9xTrzrp2lrWeJJreaV1VcdLzeuZy7CfKUzoilYQ8gfST2LH0T6uBoOkKVhWu6W68Qo9wt7wdjPjIPBaFj0m3E8Qocx/oc1m0CleKUlKVrWpKUISVrUshKUpSMlSid2BzqotadJBeD9q046pLJ2m5dxQSlbvIoi8wntVxPLAGVBLr1qpxy5M6Y02pt69yVlqRLwHYtqbG9x1Y9FS0DJxwB3HJ80yqJGaiMR4yFuLQ0gJLj6yt1xXpLcdWd5Uo5Kj31CejfTPuRbDdJbeLjdUJWkLHnx4ZIWhvfvyr01fZH0a32sLoLPpu9zAoJeVHVEi9vXyfgUlPenJV6qDn69S1Xa+XiW0Cry64yXGEgbylx0hsD1YrpqDHZhwoEPZH4JFjxtw3fBNpb/wBK540LbDdNUWVopKmYz3l8jsDcUdaM9xUEp9ddGUDON48a501zZvcXUdzYQjZiy1+Xw8DCepkEqKU9yVbSfVXRdQLpOsJudkTcmEbUqzFTqtkecuG5gOj7O5XgD20G40TexfNO26Qte1LipEGbkgq65gABZ/KTsq9Z7K2N+s0S/wBqm2uTgB9O0y7jJYkIyW3R4Hj2gkc6pno31CLNehDkObMG7bEZwqPmtSQfgXD6yUn8rPKr6/8Ayg5ZksXKzXF6O71kefb5BSS2pSVtutnIUhQ396TUnT0ma8SlKfL2FbIA2lQ4xUccydjjU+17oaVqF+HcrV1CZ4SI8xL6+rQ8ykZbc2sHzk+ie0Y/F3wj3rNbdlt/Sx/LQfH3ztef12N+hRv5KiMqVLmyJEuU849JkLU4864SVrWriSamnvWa27Lb+lj+WvR0V61JAPuaMkAky9wHacIzQQ+BbbndH1RrfEekvpacfU2wgqUG2xtKUf2eJA4nBxSFAkEEEEgg8QR210npjTNt0xBEaMOslO7C5stScOSHB2diE79lOd3HeSSYvrXo8F4f907IGGZ7q/w1hxQaYkZ/3ySBgL/G3YPHj6QVZY9Tag06qSq1y+qTISkPNrQh1pZTwVsOAjaHb31u/fO15/XY36FG/kr7e9Zrbstv6WP5ae9Zrbstv6WP5aDU3bW+rr1EVBnTwYq1BTrbDTTAdxvCXC0ASOeM4+7dn9H+mPd+7B+U3tWu2lD8oKHmvuk5bj57+Ku4Y+lWR71mtey28f62P5at/Tlji6etEO2sYUtCetlOgYL8lYHWOHn2BPcAKDcVTvSzeg9Lt9hZVlEJPlswA/8AaXkkNoI7UpJP26tO8XSJZbZPuko/BRGi4EZwXXD5rbSe9RwPX3Vzg2m6amvaUZ6y4XecSo79kLeVkq7kpG/uA7qC0OiazFmDcr26nCprnkUQkf7hk7Tih3KVgfYqzqxLdAjWuBBt0YYYhsNx2+1WyN61d6jknxrLoFflSULSpC0pUhYKVpUAUqSoYKSDyPOv1Sg5y1lp1zTd6kRkJV5DJzJtyzk5YUfiyfxkHzT6j9Krb0DqhOoLUmPJczdbahDUraPnPs+i3IHjwX3/AJVbLVmnGNTWl2GdhExnL9ueVu6t8DGyo8dlfBXqP0aoS3T7vpe8okNoWxOgPLZkMO5AWAdlxh0Dkf8A4I4ZoOm6VrLHerdf7dHuMFeW3BsutqI6yO8B5zTgHMfrGDzrZ0ClK+EyQIcOfMUgrESJJlFAISVhltTmyCc8cdlB96VVnvww/wDkL/6cj/6a2mn+kmNfrvb7Si0PR1Sy8A8qWhwI6ppb3oBoZzjHGgn9KUoFOY791KgHSFrIWSMu0W53/a8trDziDvgx1jjkcHFD0ewb927IQ/pL1SLrPTZoTu1b7Y6ovrQcokzcbKiO5G9Ke8njuNb7os00WGXdRy28OSULj2xKhvSznDj+/wDG9FPcDyVUE0bph/U10Q0oKTbopQ9cXhuw3nc0g/jLwQOzefo4PRLTTTDTLDLaG2WW0NNNtgBCG0AJSlIHIDAoP3SlKBSlKBVf6/0Ub20btbGx7rR28PtJG+cygbgP+okej2jdyFWBXlBzdpnUtz0tcC+wCuO4Q3PhuEpS+hJO49i079k43eBwegbPebVfYTU+3PBxlfmrQQA6w5jJaeRyUP18Rkb6h2uNANXnrrrZ0Iau29chgEIbncyocg538Dz37zVFru9/0tcXHoqnI0plXUyoz6FBDgSd7UhpWP8AQjkRQdM1r738i6g+qbl7OutDpnXlh1ClqOtaYN0OEmJIWAl1X/hnDgHwOD3HjW+vfyLqD6puXs66Dl2pZ0d/PHT/AOVN9jeqJ1LOjv546f8Aypvsb1B0NSvm88xHZdfkOtMsNJK3XnlpbabSOalqIAqrdV9KCEpegaZOVEKQ7c3EkY5ERW1b/tEeA+kAkWtNcRNOMrhQlNv3t1Hmt7lNwkqG518cNrmlPrO70qZtlrveqbv1DJW/LluKkSpDxKktpKsrffV2DPr3Abziv3Y7BfNU3BbMVK1qK+tmzHyotshZJLjzhySo78DifVkX7p3Tlq01BESEnacXsqlyVgB6S4BxUeSR9FPAeJJUH2sVjt2nrcxboKfMR8I+6oDrJD5ACnXMczjd2AAcq2leV7QKUpQKUpQKUpQKjWptHWPUzZXISY9wSkJZnMJBdAHBLqdwUnuJz2Ec5LSg5w1Bo7UenFrXKjl2HtfBzYu0uORndtkDKT3KA9fGvvA15qmFBl212QJsOREfiBE3accZQ62W8tPAhe7O4Ekd1dDkJUFJUAUqBSoKAIUDuIIO7FQ289HGkbsVutMLt0lRJ6yBspaJ/tMKGx92zQUBWzsd3kWG5xLrHaadfih/qkP7fVFTrS2cqCCDuznjUyn9E2pGF/gEyBMaJAG2pUZ0Z5lKwU7vy62Ns6InSULvN1QlP0mbagrUf/OfAA/9M0EDu+otSajebFwlvP5WAxFaGywlROyA0w2MZ5cCe+pXproxutwLMu+Fy3wvNWI4A8ueTxwUncgeIz/Z5i07NpfTVhANtgNIfxhUl34WUoHj8KvJAPMDA7q3VBiW63W20xGoNujNx4rXottg7zwKlqVlRUeZJJrLpSgUpSgUpSgUpSgUpSgUpSgUpSgUpSgUpSgUpSgUpSgUpSg//9k=;" vertex="1" parent="R19_NycKdf0g5RZ20iZp-28">
          <mxGeometry y="155" width="61.78" height="80" as="geometry" />
        </mxCell>
        <mxCell id="R19_NycKdf0g5RZ20iZp-29" value="" style="group" vertex="1" connectable="0" parent="1">
          <mxGeometry x="50.629999999999995" y="420" width="175.20000000000002" height="139.9999999999999" as="geometry" />
        </mxCell>
        <mxCell id="R19_NycKdf0g5RZ20iZp-2" value="SIEM/IDS" style="shape=image;verticalLabelPosition=bottom;labelBackgroundColor=default;verticalAlign=top;aspect=fixed;imageAspect=0;image=data:image/jpeg,/9j/4AAQSkZJRgABAQAAAQABAAD/2wBDAAsJCQcJCQcJCQkJCwkJCQkJCQsJCwsMCwsLDA0QDBEODQ4MEhkSJRodJR0ZHxwpKRYlNzU2GioyPi0pMBk7IRP/2wBDAQcICAsJCxULCxUsHRkdLCwsLCwsLCwsLCwsLCwsLCwsLCwsLCwsLCwsLCwsLCwsLCwsLCwsLCwsLCwsLCwsLCz/wAARCACWAI0DASIAAhEBAxEB/8QAHAAAAgIDAQEAAAAAAAAAAAAAAAcGCAEEBQID/8QAQhAAAQMDAgMGAwQIBAUFAAAAAQIDBAAFEQYhEjFBBxMiUWFxFIGRIzKCoSRCUmKSorHwFUNTchczNLLBY3PC0fH/xAAaAQEBAAMBAQAAAAAAAAAAAAAABAECBQMG/8QAIhEBAAICAQQDAQEAAAAAAAAAAAIEAQMxERITIRQiQVEF/9oADAMBAAIRAxEAPwBt0UUUBRRRQFFFH1oMUZ2rXlzIsGO9KlL7tloZUo8z5JSOZJ5AUtbxqW4XNS0IWqNBGQlltWFLGeb6gd/b+zXVqTs56R4/qSzahXx75/ieytQWCGooens8Y2KGeJ5YPqGga1Uat0ytQHxa0781x3gn5nhqFW3S98uKEupbRFYUMpclcSVLHQoaT48e5FdNzQtzSnLc+K4sAeFbbrYP4gVf0q/4lKH0ns9oflW5/aEPScxpsGYjvIslh9G2S0tKuHP7WNxWwPlShfiXyxSG3FoeivBRDT7Kstr8wlafCR5gj5VNdO6nRcVJhzeFubj7JQ2bkADJwOiuuP8A8qez/n51w8urPdF76L2NkvHsx0klVFYFZrmOkKKKKyCiiigNqNqKKA2o2oooMHpivk0+y8Cplxt1IUpBU2tKk8STgglO21eZsZEyLKirUpKJDLjKlIOFJCxjI9qWcS4XLTj93gEHxtux+FOAEP44W32xy5f3tVlar8jEu3P2x+I7FnwZj3Y9ZfbVN4Vcpy4zK8woa1IaCScOPDwrdJB+SfTl96t/SWn25Aau01AU3kqt7Sh4SBt360nbf9Tb167RaFFM2XBhp2+KfbZURzCCfGfpmnI002y2000kJbbQltCRsEpSAAAK617Z8TTGvr/eXMpQza2y3bPx6CQOtZrNH1r5133wkRo0ppxiQ0h1pwcK0ODKSKWd/sb1lkodYW4YbjnFGe37xlxJ4ghSh1HNJ6+4NNP61o3OCxcYcmG8MpdRhKiMltwbpWPY/wB71bTtSrz9+455wit1Y7oZ6es4aOnLwLtBSpwp+LjkNSQORONnAPJX9QfKu5St03Ketl8aZc8CX3FwJKTsAvJCD8iMfipog1m/oxo2/XjPvDFHf5dfvnDO1G1FFQrhtRtRRQFFFFAUUUUGFb1AdcQktyoE5IAEhtTDux++1gpJ+R/lqf1zbvaIl4YbjyVPIS28l5CmVJCgQCkjcEY3PSqam/wbsbM8Jbenz6swxyX+kkJXf4JOPs2Zboz5hvg/+VNHkK5VtsNmtSu8iRuF8p4FPOKU46Uk5I41nl9K61el6zGzt748NKVeWjX2y5LHtC1hqGx3S126zyG2S5ETJfUpll0rU66ptCD3qSABw528/SmW13ndtd4QXOBHGQMAq4Rkge9Jjtcgvt3e0XEA9zJgGMFjOz0dxSyNuWykkex8qYmlNWWnUNviFMllFyQ02iZDWpKHUvJHCpTaFHJSo7gjPPBwRiolqTV5wP616/vlR9KDgytL2SXLE4peakF9ElwsOlKXHEKCsqScjfG+MV3RWaK3lOU+mJZ4aRhGPXtxyKKKK0biiiigKKNqNqAooON6j+o9WWPTLCVzllcl1BVGhsEF97mAo5OEozzUfXGcYId/I9a0pt3sltGbhcYUTbIEqQ00tXXwoUeI/SkTfO0XVl3U42y+bdDVkJYgKKFlJ6OP7OE+eOEelQ1alrUVrUpS1kqUpRJUonmSTvQWMX2gaAQSFXtkn9xiYsfVDRFfePrbQ8pQS1fYIJIA+IUuOM+8hKRVeWbNfpACo9quTqTyUzDkLSfmlOKw/ab1FSVSrbcGEpBJMiK+2AB1ypIFBZK62uy6ntbkSQpEiI9hxl+M4lZadTnhdZcTlORk+YIODkGlFdOy3VUNxblscj3BlJy0W3BHkj/chw8OfZyoTAuV1tjvf2+bJiuZGVRnVt5x0UEnBHuDTI072rym1NxtRsh9okJ+NiICXkerrI8Kh5kYPoaCIPf8R7CD3itRQWm8Di45iWABtgLSS3j51tQe0fXcIpzchKbHNucw06D7rAS5/PT+hzYNxjMSoUhqTFfTlt1lQUlQ6g9QRyIPzrl3XSGlLylfxtsjd6of9RHT3EgHz7xrBPzzQQyzdrdvfU0ze4KoilEJVKhlT0cHzW0ftAPYqpkxJsGfHZlQpDUiO6OJt1hYWhXpkdR1HOknqfs0uloQ7NtC13CAgFbrRSPjWEjmSlOygPMAH0wM1F9P6lvWnJQfgPHuVqSZMVwkx5CQR99Hn5KG4/IhZyiuLp3UVs1JAE2EohSSlEmO4R3sZ0jPCvHMHmk8j7ggdragKKNqNqAooryVBIUVEBIBKiTgADckk0Eb1hqqNpe3F4hLtwlBbdvYV91a0gcTrnXgRkZ88gdcprxNnTrjKkTJz7j8mQ4XHnXTlSidgPLA5AcgNhsMV1tX35zUV8mzwT8Mg/DQUb4RFaJCDg9VbqPqquz2f6QGoZi5s5vNogLSHEkkfFyNlBjP7IHiX8h+tlIfLSegbrqMNzJClQrSTtIUgF2SAcER0K6dOI7e+MBy2bSOlrGhHwNuZL6ecqSkPyiR17xYyPYAD0rttIQ2hLaEJQhASlCUgJSlIGAlIG2Byr3QGPesEAggjIPnWFKCQoqICQCSSQAANyST0qC3jtP0tbXlx4ofuTqCUrXDLaYwI2wHlnB9wCPWg7N60XpO9pUZNuaakKziVDCY8gE/rFSBwq/EDSf1VoC8adDkxk/G2oEkyEIIdjgnAElsZx5cQ288ZwW5pjWdl1QH24odYmMIDj0WTwcfdk8PeNqSSCnOx5EZ5b7yRaUrBQpIUhaVJUkgFKknYgg7YPWgrdpbVNz0xNDrBW7BeWn42GpWEOo5caM7BY6H65G1WHtlzgXeFGuEF1LsaSjibUNiDnBQsHkoHYj0pJ9oWjkWKSi525si0zHClTSckQ5Byrux+4rmnywR0Gfr2Y6jXbroLNIc/QbqsBoKOzU4DCVDP7Y8J9ceVA88DG3ypT9omhme7lahs7QQtGXrpFaThK0DdUloJ2yOaxjfdXMHibNeVAEYIBB2IPIg9DQVl01qGdpu6Mz45UtvIamMZ8MiOTlSD0z1SehHqQbJQZ0S4w4k+I4HIsplD7K/3VdFDzG4I6EVX7XmnU6evjyI6eGBPSqZCAGzaVKIWz+A5x6EVL+yW+qPx2nn1EgBU+BxH7u4DzY/JQHvQNyiiigKjOu7iq26VvzyFcLrzCYTRBwcylBlRB8wCo/KpNS97WlqTpmMkZwu7xUq36Bl9VAjGmnXnWWWkFbrriGmkDmpayEpA+dWg0/Z49itNutjIT+jMgOrH+bIV43XDnzJOPTA6UgNDxm5eq9NsrTxJE3vyDyzHbU+PzAqylAVg9c45dTis1DO0i8LtOm5LbK+GTdHBbmyD4ktLSVPKH4QU/ioF7rzXT94eftNqeU3Z2lqQ842cKuC0nBUoj/LH6o68z0COJZdDarvsZUyHFbRFKVFl2Y4GUyCNsMggk++APWvpoXTqNR3xlmQCYENHxk4DbvEJUEoYyB+udj6A9asQhpLaEIbCUNoSEIQgBKUpSMBKQNgB0oK66MkyLVq+yJXxNLM426UhYwftssKQsehx8xVjRSM1VDTA7SIK2klKJdys1wGOqnHWws/NQJ+dPQb59zQc682uPebZcbZIA7uYwpoKIz3bmMocGDzScH5etVgIlQJak7tyocgjbm28yvH5EVbCq063YRH1XqVtIwDPcewOWXkpeP/AHUFirXNRcbba7gjZM2HGlAeXfNpWQfbNblRbs+cU7o/TilEkpZkNb+TUl1sf0qU0EC7U7WJ2m/jUoBetMlqQFAbhh4hlxI9N0qP+2k/pW4KteorBNBCUtzmW3jn/IePcOZ+SjVhNUstyNOalaWfCbTOVk74KGisH6gVWEEpIUDggggjnkb0Ft6K+UZwvR4zp5ustOH3WgKr60BtUF7UoypGlJDgGfg50KSrG+EkqYyf46nVc+8W9u62u621zAE2I/HSVDPAtacIX8jg/Kgr5oWQmNq3TjqzhKpZYPu+0tkfmRVkh7VVH9Lt03cFqZBlbg8232HOvsRVnrJdY16tduuccjglsIcUkEEtufdcbJHVJBB9qDo7Uo+2RbnFpVGcN4ui/dWY6f796blLjtcty5Nkt1wQkqNtmlLuB91mUkIKj+JKB86Dk9jfd51T/qcNt9+D7em7sartoDUDWn78yuUrggz2zBlrJPC1xKCm3iPJJAB9FGrDpUFcJBBBGcjcHO4xigi150ZFvOobHfX5a0JtyWQ5FS0CHyw6p5s95xAjc+LwnIHSpWBjnjnmj61gkjHrQZ64xVYdUzm7lqG/zWlcTL0+R3KhuFNNq7pCh7gA03e0LWTFphv2e3vJVdpjRafLZz8DHWnClLI5LUD4RzGc7bcSg07Zn79ebdbGgrhfdCpCxn7KM343Vk+gyB6kDrQP7RMVcPSmmmVjCjBRII5Y+JUqTv8Axb1Itq8NoQ0htttPC22lKEJA2SlI4QK9HPTzoOHq+SmHpjUr6iMf4ZJZTn9t9PcJ/NQqtDbS3nWmmxxOOLQ0gDqpZCRinH2tXtLVvt1kaWO+muiZLSDuIzJIbSoeSlbj/wBuoBoS1m66oszRTxMxXv8AEZHkERSHBkeRVwp+dBY1lsMtNNA5DTaGx7ISE172oooCjmKKKBJ9qWmlQ5yNQRUfolwWG5oSP+VMA2WR5OAfUH9oVq9nWsEWSSu1XBzhtk50KbdWfDElKwniUf2FbBXlgHlmnZPgxLlDlwZbQdjSmlNPNnbKT5HoQdwfSq66q0rcNMT+4e4nYTxUuDKx4XW/2V42C08lD58jQWTSc5+XlWrcYMS5QpsCYjjjS2VsOpGx4VDmk+Y5j1FJvRfaK5aksWq+KdetqcNx5QSVvw08ghQG6mx9R0yMJDoiy4k2OzJiPtPx3k8bTrKgtCwfIigrRqHT9x05cHYE1OQMrivpSQ3JYzstGevRQ6Hb1VItL9o92sLTcGYyLhb2xwspU4USY6OiG3CCCkdAR7EDanTeLHZ77FVDucZD7RJW2SSlxpzGONpxPiB/ryII2pWXXsiuTa1rs1wYfaJJDM8KZeSnHLvGwpBPyTQd89r2luAEQLx3mD4e7ihOfLi77/xUVvnatfJ6FsWmOi2tKBSp7jD8sg7eFZSEJ+SSfWuWezPX4Vwi2NEZ+8JsLh993M/lXVt3ZJqR9aTcJkGEz+sG1Kkvj04UhKP56BfttzJ8lDbaXpMuU7hKUhbrz7qzn1USafehNIDTUNT8tKTd5yE/FFJChHaGFJjoUMjY7rPU45hOT0dO6O0/ptJVCZU7MWkocmSeFcgpPNKCAEpT6AD1JqSZHmKArn3m7W+yW+Tcp7gQwwnISCON5wg8LLQPNSuQ+vIZGrftSWLTsfvrlJCVqSSxFa4Vyn8f6beR9SQPWkHqnVd11TMS9J+xiMlQhw21FTbCT1USBxLPU4HoANqDRvd3mX25zbnLIDklfElCSShltI4UNIz0SMfn1NODsw08u2Wpy7ykFMu7pQpkK2LcJPib/jPi9uGoNoDRjt+lIuM9oizRHMqCgR8a8k7Mo/cB++fl1yl+JASlIAAAAAAAAAHTAoM//VFFFAUUbUbUBWjdLVbbxCfgXFhL0Z4bg7KQocnG1DcKHQj/AM7721FBXrVmhLxpxbklkLmWniJRKbR42ATkJlJTy/3DY+hOK41k1Jf9Pvd7bJa20qIU6wvxxnsf6jSvCT0yMH1FWcUlKsg4IIKSCMgg8wQdqgt/7MtOXVTsiBm2S1kqPw6AqItRx96PkY/CR7Gg5lp7XLS8EIvEF+K7gBT0T7dgnzKFEOAfxVMImstFzRli+24bZxIeEZX8MnhNJm6dm+tLcpRbiInsgnDlvXxnHq0sJc/lNRaTAuUJRTMhyY6hnwyWHG/+9IoLQC72IjiF0txT5iXHx9eKtOTqrSMQEv321DHNKJbTq/4GiVflVYs+1em2nXVBDSFrWeSW0qUo/JIzQPi4dqejYnEIpmT1j7vw7BabJ9VyCk/ymoTeO1bUc0LatbDFsaORxpxIlEH/ANRxIQPkjPrUYg6Q1jcSBFss4gnHG+38O3/HIKU1MLV2R3d4oXdrhGiNnBLUQGS+R1BUeFse4KqBcvvy5j7j0h16RJfVlbrq1OuuLPmpWSTTD0n2ZzrgWZuoEuRIWUuIhbolyAN8ODmhJ6/rf7edMux6N0xp/hcgxAqWBgy5R76SdsEpURwpz+6kVIQAKD5x48eIwzGjtNtMMIS0y00AlDaEjASkDpX1o2o2oCijajagKKKKAooooCiiigxgUFKSMKAI8lb/ANaKKDXMC2qOTCiE88lhon8019kNMNDDbTaB5IQlI/IUUUHrAo28qKKDNFFFAUUUUBRRRQf/2Q==;" vertex="1" parent="R19_NycKdf0g5RZ20iZp-29">
          <mxGeometry x="62.400000000000006" width="112.8" height="120" as="geometry" />
        </mxCell>
        <mxCell id="R19_NycKdf0g5RZ20iZp-18" value="" style="image;points=[];aspect=fixed;html=1;align=center;shadow=0;dashed=0;image=img/lib/allied_telesis/computer_and_terminals/Personal_Computer_with_Server.svg;" vertex="1" parent="R19_NycKdf0g5RZ20iZp-29">
          <mxGeometry y="77.59999999999991" width="62.400000000000006" height="62.400000000000006" as="geometry" />
        </mxCell>
        <mxCell id="R19_NycKdf0g5RZ20iZp-30" value="" style="group" vertex="1" connectable="0" parent="1">
          <mxGeometry x="180" y="690" width="238.84999999999997" height="130" as="geometry" />
        </mxCell>
        <mxCell id="R19_NycKdf0g5RZ20iZp-7" value="User machine" style="shape=image;verticalLabelPosition=bottom;labelBackgroundColor=default;verticalAlign=top;aspect=fixed;imageAspect=0;image=data:image/jpeg,/9j/4AAQSkZJRgABAQAAAQABAAD/2wBDAAsJCQcJCQcJCQkJCwkJCQkJCQsJCwsMCwsLDA0QDBEODQ4MEhkSJRodJR0ZHxwpKRYlNzU2GioyPi0pMBk7IRP/2wBDAQcICAsJCxULCxUsHRkdLCwsLCwsLCwsLCwsLCwsLCwsLCwsLCwsLCwsLCwsLCwsLCwsLCwsLCwsLCwsLCwsLCz/wAARCAC7AT8DASIAAhEBAxEB/8QAHAABAAICAwEAAAAAAAAAAAAAAAUGBAcCAwgB/8QATRAAAQMDAgIGBQUOBAUDBQAAAQIDBAAFEQYhEjEHE0FRYYEUIjJxkRUjdKGxMzZCUmJyc4KSorKzwdEkNDVTFkN1k7RjwvAlJ8Ph4v/EABsBAQACAwEBAAAAAAAAAAAAAAAEBQIDBgEH/8QAMxEAAgIBAgQEBAUDBQAAAAAAAAECAwQRIQUSMUETIlGhBmGRsRUycYHRFOHwIzNCwfH/2gAMAwEAAhEDEQA/ANt0pSgFKUoBSlKAUpSgFKUoBSlKAUpSgFKUoBSlKAVgzbpAgFKH1qLqk8aWm0lSynOM9wHvNZ1UO6P+k3SasHKW3OoR2jha9Q/Xk+dV+flPGq5o9Sw4fiLKt5ZdETC7/IdOI7KGknkpw8a/hsn7axZEuU6n515as742CfgkYrDZTyrm8a4vIzb73pOW3sdBDFprlpCJhPL51HOOrQriQopUNwUnBFZb6udRrqudeVIu6I7EnH1Ve4ZAW4iS0PwJCRnHg4jCvtq1WrVVouakMqV6LLVsll8jCz3NOeyfdsfCtaOnnWC6c5G2K6HFybYbN6o0ZHBsbJXlXK/Vfwb3zX2q5o5yY5YoLkuQ4866XXG+uVxLbjlZS0kqO5GBnfv8Knmn2HwosutuBKihRbUlQSocwcHnXQxnqk33OAuq8KyVeuuj0O2lKVmahSlKAUpSgFKUoBSlKAUpSgFKUoBSlKAUpSgFKUoBSlKAUpSgFKUoBSlKAUpXw0B0S5CYsWVIP/JZW4Ae1QHqjzOK1+wCcEkknJUTzJO5NWrUz/Vwmo4PrSnxn9G1hZ+vhqtsJrleNW6zUPRfc6jhFfJRKx939jMaGBmuh5VZPsorBeVXNR3ZZVrWWphPq51HOmst9W5rAdVVjVEuKlsYrp51hqQ4+tthv7o+42w2Bz43FBAx8ayXTzrP0zF9KvcVRGW4TbsxfdxpHVt/Wc+VXGPDmkom2+5UUytfZGxwGrbaJHV4CWo6IjPZgJSGU4+s1QYk6bFkrlRXltLWok8O6VJ7ErSdiKt2qn/R7dFihXrOZUrs3PqD7VHyqltJrLPt1u8v/Faf9/wfJLJN79y8W/VLLoSie0Wl9rrIK2z4lHtD66n2JsGQAWJLLmexK08Xmk7/AFVrZocqykgHFR6+MW1vlmub7mCsfc2PXxSkpGVKCR3qIA+utfpUsYAWsDwUof1r6rcb7/nb/bUh8dTW0Pf+xnzlyfu1qYzxymifxWsun4N5qHlanSMphx98/dJJwB48CDn94VX1msCc91EWS72hspTjnxK9XatEuKX3NRj5dTTKyTeiLnpW53O7RLhKmKbU2J7rMMobCD1SEjIPDsQCcA47KsVVqxxnYlrtUAEpIaSp4J2JcdJdcKu3mTVl2rqIJqK1JQpSlZgUpSgFKUoBSlKAUpSgFKUoBSlKAUpSgFKUoBSlKAV8r7XFSkoSpSiAlIKlE9gAyTQFO1C/11yDQPqxWkN/rr+cUfrA8qxmE1ilxUl+RIVzfdW6fDiVkDy5VnsDFfPs67xbZT9TuIV+DTGv0R9dOBjuFRr6qznlc6jH1d1RK0SKImE8edYLp51lOnnWC6rnVpTEt4IxnTzq5aEhZamTFDeTJSwj9FGBKse9RPwqkPKAClc8AnHf4Vtmwxk2q0RwsAehwQt3sy8sF5zzySKv8KOjc32Kb4gv8PFVa6yfst/4K3quV6Rci0k5Sz6g8OD1ft4qiGhXyU6p+XIcUckrIJ7yOZ8zk13NJqjusctZPvv9T5zN7mU0NhXekV1oGwrtTVY3qzBHYmiiK+jlXBZG9EZvodKzWE40Jk+zQOaXpQeeH/os5WrPwNZa67NPNekXe6TCMohMohNHHJxw8S8eQ+urbhtXiXr5Gutaz/Qu0NPE6pePYSfirapGsaEjhaKjjK1Z8htWTXZEwUpSgFKUoBSlKAUpSgFKUoBSlKAUpSgFKUoBSlKAUpSgFRl9fUzbZIRxFyRiMgJBJ+c9rl4ZqTrFnN252OpNwSwYwUlSvSSkN8STkZKjitdkZTg4x6s2VTjXNTn0T1KEwpBPA2FvuDm3EQX1DwUUeoPNQqSbj3hYwmNGYT3y3i4vH6OOMfv1I+n2xJLcb10AnhRGbDbKRyAClAD4JNFylpSCltoZGRxcSyPrA+qq6r4eh1s1b+hOv49zt8iX3MP5Mmq3cmxxnsbgoI+Ly1GuC7M4rnLYV+kgMY+LSkn66+u3SejPA42nHcwz/VJrDOors0dzFdHc7HQB8W+GrSHAq9NFFFa+Ozi/zafsjplWGbglDTLnaTEdUhf/AGpJKfg5Vdlw5TJcBQolAJWkoUh1A71tK9bHiMjxq4x9XwFEIuEDq+wuxTxJHiUHCse4mptLFlvMcLjPNSWgfVKVHjaV2YIw4k/CoGRwZ1eaG3ui9wfiSWqU/MvozVVrjen3W1xccTbkhDjvaOpZ+dVv3bY862bepAi2Zw5wuSvi94Hr/wBB8aw4mnGLdcVzASXHGlR2vVCdnFJKlKKTwlW2MhI255O9YusZI6yNDQdmkJBG3b65/wDZUe1OjFkpbOW3+fsYcYz4ZlsZV9EvfuVVoHYnnzPvrPaFYrQ5VnNjlXOXyOabO9I5V2pFcE12JqAexOXIV1LNdquVY6jzrNCbOh1wNoccPJtC1/AZqZ0vGUzaI7igetnOOzFk8z1iuFH1AfGq5cAt5tmI191nSGoqAPylAE+VbChMoQqMy2MNsoSlI7kNp4R/Suo4PVpGVj7mVC2bJVtHAhCPxUgfCuVKVfkgUpSgFKUoBSlKAUpSgFKUoBSlKAUpSgFKUoBSlKAUpSgPnbWs7vKXPvVwcK1KaZfMZhJUSlKWfmyUg7bkE+dbCuMsQYM+Wcf4eO64nPIrA9UeZwK1jBbUeEnck5UTzJPMmrbhsPzWPtsUnFZvy1LvuT0BvlWa+rnXCGjhTnuFcJCudb2+aZhBcsCPkK51EvqrPkK51FvqqbWtiFN6swX1c6xWZ863vpkwpDjD6T7bZ9ody0n1SPAg12vK51HLQ7IcajtZ62Q63Hbxz43VBsfbW5pNbkqpehuvTs+bdbLbLhNaabflNqc4WgoJKONSULwrkVAA8+2sS96dbnqdlsLUiSQCptziUy6QAnO3rJO3Md3I1lI4bbaXENKKW2Gmosff2QhIaBH2+VQNtvs+MSlwl9hSirgWTxoBOfUWcnyNfO+I5uPXb4Vsdnv+nodTTiztg5LsQbsV+G4G5DamiThPWY4FfmOD1T8QfCshAI+FXdEi0XJBGU8SxhbboSCfelXqmsB/TUQ8RYDjOd/8M4UD/tryj4Cquzh0chc+NNNESylxej2K6mu1NSC7DKT7Mx5P6WIys/FBTXEWaTyVcVD9HEZSfiomof4Plei+piq9O5Hq32G/urEeeZbOHHEpJOAnOVk+CRv9VT6bDEO77s58doceLaPg0EishmNa4X3BhhogHKm0Arx2krO/11v/AA1UrmybFFfqZKhzei3IG3W2W/coE51hxuLEQ84j0gBC3HljhSUtn1sDnkgcqu0FH3VfuQPtNY1t9HuMdEptTnVqWtHCpPCriQrhIJNSqG0Np4UDAzn3nvNdLjVwqqUa90Z8vJ5X2OVKUqQBSlKAUpSgFKUoBSlKAUpSgFKUoBSlKAUpSgFKUoBSlKAq+s5XV2+NEBwqbJTxDvaY+cP18FVqC37NZeqpHpN6DAOUQY7bWOY6x351X1FPwr7Ab9nar+iPh46Xd7nMZEvGyn6Lb/PclUDgaHj/AErBkK51nOkJSB3CoqQrxrGtavUk2PRaEfIVz3qLeVWc+rnUY+qrGK2IUd2YT6udZ2lIvpd/irIy3Aaemr/PA6pv61Z8qi3lc6u3R/C+YmzVDeZLTHQSNyzFG/kVFXw8K05dnh0yZZ40NZIsOonuphRIoPrKHGoeJ9Uf+6q4ynlUhf5AfuC0A5S0eEeHD6v25+NYjKeVfFeJ3+JbOa9fZbHd4lfJUkZjKeVSTTshAAQ6tOOwKOPrrCZTyrMTXJO6cbNYPT9CTJKS3RmJlzf95XmE/wBqKkyj/wA5zyOPsFdKRyr4s1ZvNyVXvZL6sieFDX8qOtxbiz6y1K/OJP21g3B3qYclY5lHVo7+Jfq7fXWYTUfKAkTLVD5hTpkuj8hvcZ+BquwoTysqMXvqyQ2q4Nk/bCqLCt0JpICkNtpWpW541essgDxJ7amajoaOJ7iI2Qkq/WVt/epGvtcIqEVFdjl5PV6ilKVkeClKUApSlAKUpQClKUApSlAKUpQClKUApSlAKUpQCuKlIQlS1qwhCStRPIJSMkmuVQmp5follnkKwuQEw2/e8eFXwTxHyrOEHOSiu5rsmq4Ob7FCQ6uZKlS1e1KkOyD4BaiQPIYHlVjgtgAZ7s1AxEIaaD7ym2WAN3ZC0MtD9dwgVLx7pb1I4YqJ85XLNthPvNf99wIa/froMhqK5V2Obw65SfO11MuQv2qiJCudZy1XF72LHcQO96bbGCf1Qtw1hvRLoedongf+jLtr5/ZK2zWmqyC6smW02S6IiH1c6jH1VIyk9UoJd61hajhKJ7LkRSj3JW780fJw1FyQtBKVpUlQ5hQIP11YwaluiLGuUXpJEfIXwhatzgEgd5HZW4bBEFps8VtQ9aHBSXNuchY6xfxUTWq7REE+82mKoZQqSl94dnUx/nlZ9+APOtr3V70a1nf15Cyo95Cd/txVDx7J8Chtdlr+/RF5gVc0kvUqjii7IeWTnKiAe/h2zWWynlWGynlUiynlXxfLlyrQ7dLQzGk1kJHhXU2MCu9NUdfmnqeSZ2DlXWs12chXSrnUnJlyw5TVDdnA1i24dfcblJzlLCURGvfzV9n113POBpp508m0KX5gbV9szRagMqI9eQVSVd56w+r9WKvfhXG8TIdr7EfPs5atPUsUJGGlL7Vq+obD+tZVcG0hDbaPxUgVzr6cUApSlAKUpQClKUBT9G6wd1Mqa1KgohPtMsS4yEulwSIriltFxJUAfVUnB27a7NZatc0wxDMaEmZJf655banFIQzFaKG1OrKQT7S0JHvPdVN07xWuz9Geo0A9WmTcbBdMdsSdPf6paj3IXv5isnVPFc7b0mXxQ+Zim3aathKSD1UOew5KUDnBCnDsfyPCgNjPyLombaGo8RpyDIS+Z8hb4Q5HKUBTYbaO6uI7HurLW6y1wda62jjVwo6xaU8R7k8RqqXr77+jD9HqT/wmaxLHarXqWRqu6XyK1Of+Wp9oityhxohwYZShDTKCcJUckqIwcnPbuBeSQOZA3A37z2V8S40suBC0KLaihwJUCUKABKVYOx5Vr7UVtmW6x6Ptabo6683q63RIc0pHXRmnvSGmh6xVlTYVgE/ijYYrsvFotkGXovScJlUa03ufPkXVLTjgXMEGOhwNPu8XGQvbi37OygL426y6kqacbcSCUlTakrAI5jKTXxTzCFobW60lbmerQtaUqX+aCcmqTdbdbtNXrR8+yxm4XyjdG7LcI0RPVsSo76FFKnGk+rxIIyCB275qJcgMwH9QJ1RpC4Xhc2dLfTeIDSZy1RXCerCQVhxvgGAAnGMeG4G0K4Nusuglp1twA8JLakqAPcSk8615MkQblA6O7HAuM2VZr1LfalyX3VCXJiwUFaokhaQlXrE8Kth7PP8AGy73brbpm4aPudkjNwly73Dsc5iIC2zLiy0rHzjafVKkkZScZye3GwErLvN+kXqVaLHHth+TW4L1zkXR59KT6WVKQzGbjpJKuEZyTjfGNvWko15iyrterShDqXrS3AcfcWUdW56Y2p1IbwrOwG+QP61VLHp/TqdY6yQm2Qwm1/8ADb9uSGgBGdWwt1S2gORJAPvFfLJp/TqdZa0bTbIYbtiNPOwEhsBMZxyOta1NjsJIBNAXiPMhyus9HeQ51ZwvhztnIB37KyKw4duiwS8WesJdOVdYrixvnbYc+ZJyT31mUAqLvFpRdmY7SpD0csvh5LjKWVq5FJAD6VJBwdjjapSlZRk4vmRjKKkuWXQq0XTtqZc65EJUl8ezJuClSn8dhC5GQPICpgQ5ChuUpHcSTjyFSNKSnKW8meqKXQwRAPa78E/3NcvQEf7iv2RWZSsT0wHLclaFIUpK0KBCkOtpUhQ7ik5H1VWLnoxlaFmCExyASlj1nIZJ39VA9ds+KdvyTV2pW2u2db1izCUIzWkka30vYJ0C43GVLZU2QymFFClIXxFawtxaVIO6dkgHAzvsMVMame+eYipOzSEJx444j9qfhVrUy0paHOHC0nORtn31W71aJKnnpjfzralcRSnAdb4juADsofXVRx2d2TXrFa7rXT0X9yZw+NdU92QTKeVSLKeVYjKNyAQSk4UBkKSe5STuKkGU18tzZ7s6VNMyEjYV2pFcEjlXakVGxomqbCjtXQo12rNY61ttjK1BI/KOK1ZDc56IQMG5lS2WYqPbmSG2R38OQT/SrFFaT1jDaRhDYTgfkoG1QMcCZcozyMqjxGnSFYOOuJ4Rvy7c+VTyG5ik8cZRSsPNJUoBs5aOSsYcBHdX0n4ZxXTi88lo2U/ELOaaiuxLV9qOtpvCkPfKaWkuAspaDXDwkJaSlaspJ9pQUoDsCgOzJka6krhSlKAUpSgFKUoCrxdIss6QXpN+V16CxKbEoM8HC67IXKbdDXGfYUUnHHvw9maP6Sac0eNJsS+qT1EdtUos8fE4iQiU46WuMe2oHbj2zzON9NXm9a6st0uFrkaiuynYb3VKUmZICVjAUlYBVnBBBHvrbvR1eZF401HXKfcfmQ5MiHJdeWpbrhCg6hSlK3PqqAz4UBMTbMqZeNL3X0ngFjTck9T1XEZBmMoZzx8Qxw4z7JzUe7p+9w5t1k6fu7EFm7vqlzI0uF6UhqYtPCuVGIWnClYBIVkZ+AtFae6TtTXmFe4VvtdymRERoKXJIiPuNcTz6yoBfARnCQkj874gXhWkWBbdO25iY4n5KvkS+vvvt9c7NfaWt1zjPEnBWVHfJxjkakb7ZBeG4K2pLkO4W6SJltmNoS4WHgOEhbasBSFDZQyM/bqXQGrL85qa3xLndJ0qNObficEuQ46hDpT1ja0pWcZykJ/WreW1AVqNYbq/c4F1v9xYmO21LvydFhxTGhsOujgW+sLWpal45ZIA7Nzt1N2PVkAyGLTqFpMB115xlF0gqmSYYdUVlLT/AFqSoAklPEDjx7Zm93AWqz3i45HFDhSH288i6lB4E+ZwK0Pp+96zu97sttN+vCkSprCHgJr/ANxSrjdOyuxIVQG3joyImzW+2xpshmdb5pukS5lKFPC4KWpanVt7JKVZwU55Y3yMntYsF3lXC3XDUFzYmm2FTlviQonosZEkjhMl3jWtSl49nkBzHOtb9ImoNR2/U8yNBu1xjR0xoSksx5LrbYKmgSQlJxv21eujadcLjpsSJ8uRKfNwlo62S4t1zhHAQniWScDsoCdg2cw71qO7+kcfyyi1o6jq+HqPQmVNe3xHPFnPsjHjWHIsd4Zvc28We4RWDc24TNzYmxVPhfomUocYWhxJB4TjBGO33WPam1AKU2ptQClNqbUApTatbdKt1u9rjaeXbZ8uGp1+al0xHltFwJQ2QFcBGcZOKA2TStTdFl5vl0uN7RcblOloahMKbTKkOupQou4JSFkgGts7UApTam1AK4qSlYKVJBB5g1y2ptQEVLtEZ/1uAKUORyUOD81xO9Ri7dKZOG5ChjPqyWwsY7uNOD9tWjavhAPPGPEVByeH42V/vQTN0L7K/wArKt1d1TyRCUO8OOp+1Jpi8HYIhI8StxX2Jqyqjx1c20+QI+yuHokX8Q/tK/vVcvh7BT1UX9Td/W2/IrvolwcPzs1KB3R2t/2lH+lc27ZCSQpSFPuc8vqLmT+b7P1VYRGjD/lg+/J+012JQhPspSPcMVNo4XiUPWFa1+e/3NUsi2fVka3FfUAAgISBtxeqB7gP7VnstdU2EEgnJJOMZJ8K7abVZJabI0ChptXw/wBaAZpVMurt4ts4pTNlllRD8fjdWUKRndCgT2cj4HxqYm3tlu1tS2SA9KQpDKTuW1p2WVfmf276gxza9ZqWziWE+H2JQlB8yl0JvNM1B2Jq4eiOTJkmS4p9BLDbrilBDQGQrBPNXP3Yqvw7zcY7pddkSJHzLiG2nFrWhTy8BBKc9n/znWE86Nag5prmM6+HTtlOMJJ8vuXznypmqVJjaqLapshUjABcUlD+Ftp556psgADwrMst9WOsjz3StKUcbLyt1YBAKFEc+eQf7V5DPi5qE4uOvTU9nw2ardlclLTroa36W7b6NfYNxSnCLnCSFn8Z+KQ0r90t1mdD9x6ude7UtW0mM1NZB5BcdXVrA8SFj9mrN0rW0S9NompTly1zGXirbIZf+YWPiUHyrVOirj8l6osEhRw2uUmI9vgdXKBjkq8BxA+VWRVnpY15m1TMdvWqL2+yFPGRcVxYgbyouIaUIzISPEAY99eh79cBarLerhxAKiQZLrRPa8EFLafNRA860J0fwDcdWWQKHEiI6u4unckejJLiFH9bh+NAVyFKegTYM1rZ6HJYkt5/HZWHBn4V6rjvtSo8aS0ctSWWn2j3ocSFpP115n1XbfknUV+ghPC21NdcYT3MPfPtj4KFbu6Obl8o6UtYUridt5dtru/IMkFsfsFFAR3StcTF00iGlWF3OayyodpZY/xCj8QgedUzolt3pN+m3BScotkJQSfxX5RLSf3Q5XZ0uXAv3u225Ksot8HrFj8V+UviUP2Uoq29FFu9F069OUnC7nNdcSrG5Yj/ADCR+0F/GgO7UrvRKi7PjUgZ+VeqYLvGzc1nq+D5veMkt8qn9Lq0qq150yEi2ekvY4EyUjrvV49pQDndWm+lH77pv0SD/KFbF6KvvUT/ANRm/Y3QEvO1zoq2y5MGbdeqlRllt9v0ScvgUADjibaKT5E1KrvFoatjV5emNNW12O1KbkPktpU06kLRhKwFZIIwMZ3xjO1ee9c/fbqX6ar+BNTJRqDXa7FZbQP/AKZYbTbIzrr5U3GbfEdDbj72xJUSFJQACcJyAMkgDYJ6U9Dh3qg7PKOLHXiIrqsZ9rBUHMfqVbLZd7ReY4l2yazKYzwlTRIUhWM8LiFALB8CBWjdQ9G19sUB25JkxpsaOAqWGEuIdZSTjj4FjdI7SDkc8YBIi9F3qTZNQWt1txSY8qQzDnIzhDkd5YQSod6c8Q93jQHpSq1qHWumtNq6ic+47NKQsRIaA4+EkZCl8RCE57MqB35GsvU96Tp+yXK5kJU6y2G4yFclyXT1bYI7gTk+ANebkpud6uKEJ6yVcbjJwCTlx595XNRVt7zyHuFAbij9L2m3HQh+Bc2GicdaAw7w57VISoHHuzUV0rToNytWkpsGQ3IiyHp62nWjlKhwNAjB3BHIgjIO1co/Q6kxUmVeyiYpAKhHihyO2vHsgrWlagO/CfdVC1Dbb7p5w2C4FJjtvruEVSN2netQGi60oji34QFDvT5kC49Dv+p6g+gsfzq3RmtL9Dv+p6g+gsfzqsPSXq+TZ2WbNbHVNT5rXXSZDZwuNFUSgJbI5LXg78wB3qBSBZbxrTSVjcWxNuTZlIJCo0VKpDySOaXA3lKT4KUKh2elPQ7riULdnsJJwXH4iigeJ6lSlfu1qLTOlbvqqU61EKGmGOFUqU/xdW3x5wkBO5WcHA8NyKtty6IrrFiuv2+6Mzn20lXoy4xjKcwM8Lay4tPF3Zx76A2/AuNtukZEu3y2JUdZIDjCwoBQ3KVDmD3ggGo276t0tYpKIl2uBjSHGUyEIMWY6FNKUpIUFMtKTzBHPsrQGnNQ3PTFzblxyvq+NLU+KrKUyGUq9ZC0nkob8JxsfAkHYnSlGi3Syad1JCPWNBSW+MD1lRpiOtbK+7BGPeqgNh2bUNg1AiUu0TRJTGW2h/5p9ooKwSn1X0JO+D2dlStaJ6KLn6JqF6AtWG7rDcbSO9+Pl9BPlxjzrc17ni12i73HIBhwpL7eRkFxKDwDfvOBQEK90haBjuvMO3kB1lxxpxKYc9QC0KKSApLJSd+0GrMy60+0y80sLaebQ60tPJSFpCkqHvFeTDkkkkknck8ya9GdH1x+UdKWZSlZdhoXb3dycGMrgQD+rwHzoCcut3tVliKnXOSI8VLjbRcLbrnrrOEpCWkqV9VYln1Ppy/uyWrRNMpUZCHH8R5TSUBailOVPtpGTg491a+6YbltYbOhXPrrk+n4x2T/ADKhrXMlaX0BLuMVRauOpLkqHGeTlLjURhC0KcQeeQQ4Ac7cYPZQG0LxrbSNkdXHmXFKpSCQuPEQuQ6gjYhzqxwJPgVA1Do6VdErUEqVcmgea3IgKR/21lX1Vq7RmkndWzJqFy/RosJDTklwJ6x1anVKCUISSBk4Vkk7Y5HNX2V0P2YsOCHdZ6JPCeBUpLDjJV2BSW0JVjz+NAXyBf7DdYr0y3T2ZTDKeJ3qietb54C2lgLBPZlIrIgz2J7anGkupCVcJS6AFDng7EjH9q0NYtOdIttuokW6zzOtiPOMPh4JZiSmgrhcZUuQUoU2oDG2e8bjI37GZaYaAbZSzx4ccQnBIWQM8ShzI5Zz2UBhXyI1KgPqWpKFx0qfbWs4AKRuknuPL4VTre3GemwmpSiI6nRxA8lE7hB7go4Bqb1BOdlSGrTEypXWIS6AdnHjulBPcnmr/wDmsK8Wf5ObiONqUtpaEtPqOdnwM8Q7grs91c5nf6lrsgtVDTX5nU8PfhUqmyWjnry/L/3sXVWAhYHIIWPqqh2JtLl1t4UMhBddAPLiQ2SKs9muPp8FQcV/iY6C29nmr1Twuef2g1UbbKTCmw5KgShtSg4AMngWkpOB39tbcy2E5U2Lp1+xowKbK4X1NebTT2ZsTCTsdwdiDyINa2fbDT8lsZw2882PclZSBV7du9rajmSJLK0hJUhDa0lxasbJCR62fKqRHjyrhIcQ0kqcUHJDmOQBVufidq84pJW8kIbs94NGVXPOzZbdS83iAm6Wq625QH+NhyI6SeSVrQQlXkcHyrywesacIPEhxteO5SVpP2g161NebddW75M1VfWUpw09I9NZwCAUSkh88OewEqHlV+c4bD15f0ytCWV1CgHL+YBcQDuEto9IdHkoJSffUd0PW/L2oLopP3Npi3sq7+sV1zo/dR8a17OvL0206ctSkkN2ZNwCFcWesMp/rs48OQrd/Rrb/QdJ25Sk8LlwdkXBwd4cUG2z5pSk0BR+l63dTdbTc0DCJ0NUdzHa9FV7R96VJH6tZPQ9cSmTfbSpWzzLM9hJ5BTSupcI94Uj9mrR0o2303S70hKcu2yUxMBHtdWolhwe71gT+bWlbFd5FiuKbgzxFaY01gBKuHd+OtlKj+aSlX6tAd2p7gbtqK+zkkrS/OdQxgZKmWj1LXL8lKa9G2O3i1We0W4AAw4UdlzGN3QgFxW3ecmvPOi7d8p6osEYpy2mWmU9tkdXFBkKCvA8OPOvS+9AefulH77pv0SD/KFbF6KvvUT/ANRm/Y3WuulH77pv0SD/AChWxeir71E/9Rm/Y3QGp9c/fbqX6cf4E1uDozgsxNJW55KQHZ7sqW+rtUrrVMp+CUj/AOGtP65++3Uv04/wIrdnR/8Aefpz9A//AOS7QE1dkIctV5bWkFDlumoWCNlJUysEGvLkT/Nw/pDH8aa9TXP/AE26/QZf8lVeWYn+bh/SGP4xQG4umGQtFrsUUE8D9wffV4lhrgH8Zqp9FMVuRqnrVjJhW6XJaPc4ooj5+C1VbemCMtdpsksD1Y9xdYV4de0VA/uVU+iiU0xqlTS1YMy2y47Q/GcSpuRj4IVQG+sVqfpkab6nS7vCOsDtwb4gBkpKWVYPw2//AHW2K1L0xyGSjTMYKBe4p76kg7pbw0gEjxOce40Bg9Dv+pag+gx/51VLW8tyZqvUjizktz3Yie4Ii4jgD9mrb0O/6nqD6DH/AJ1VHW0VyHqvUraxguXB6UnxRJxISR+1QG4ujOG3F0lbXEpAcnPS5bxH4SutUynPklNXQ1TejWW1J0jakJUCuG7LiPAfgrDynQD+qpJ86uRoDzj0gw2oWrr+20kJQ881MwPx5LKHlnzUVGr5pGMvUPRtdrSQVuNOXCNFB3+dRwTWRk/lEVQ+kGY3N1ff1tEFDLzMPI/HjMoZWPJQUPKtp9FkVcfSrbqgR6bcJkpGe1KeCOD+4aA0hap7lqulsuKArihS2JBSMAqDawVI37xkedbp6Ubo21pZphlwKF4lRUJx+FHbHpRUD3bI+PjWqtaWv5J1NfIqU4ZXJMuPj2epkjrkhPgMlPlS/agVd7Zo+EpRKrPbXo72QfupdLadzz9RDfmTQHd8gj/gc3/qvnxfvR+PfeF1Ibz3e3tV16HriMX+0qVvli4sJ7wfmHT/AC/jVmTp/wD+3QsfVnrjZOv4AN/Tf89jv9utO6Qvg09ekXBZIa9DnsuAJKipS2FKaTgdnGEZoDJ11PXd9W3jqsrSzITbIyRv/l/mSE+9XEfOr/r3TbzGirEzFQpw6eDHpIbGctFnq3nsD8rCj4EnkKoOg7eq76stHW5WiO8u5yVHcn0f51JV718IPvr0YQCCDuDsQcHI7iDQHl6yX+86elmXa3+qWtAbeQtIcZebzxcLiFfUdiO8Zq/w+mKcnhFxssZ3kCuG+4xjx4HQ5/FVpu/RjpG5OOPx0yLc8slShBUj0cqPb1DgKR7klIqpzuh66Nhardd4j+MlKJbLkc47uJsuDPkKAulk6RtJ3p5qKHX4Mt0pQ23PShCHFnbhbdQpSM92SM9lXBYUULCFcCylQSoAEpJHMA7bV5UuNvn2qbKt89ksy4y+rebJBwSAoEEbEEEEHxr0NoS5ybtpezSpSyuQhDsR1aiSpwx3FNJWonckgJye/NAZ9vsceBIckl1195SSlKngn1OI5UocI5ntP96kZcVmZHejOj1HU4JHNJ5hQ8RzruxX2tUaYQi4RWzN077LJ+JJ6sg4ViTb3lyG5j6vmnEONqS2EuJKTgKwM7HcVW7K00/cY7LqQpp1mShaTyILZq/KTxJUO9Kh8Riq/bdPPwJjEpUttxLSXUlCWVJJ408PMqNVuRh+etVR8qe/sWuLneS13S8zW3v6HUvSbRcKm5rqUE54VtIWsDu4sj7KmLdbIltbUhniUtwguuubrWRyzgYwOwVn4pU2vEpqlzQjuV9ubfdHkslqhWn+mG3cL1huyU7ONPW55WNgWz1zWT3niX8K3BVK6SmWXtNKDiArguEFaM/gqKlIJHkSPOpRENAMtOPvMsNDicecQ02nvWtQSBXquDFbgwoMJr7nDix4rf5rLaWx9laA0xEiHUmmfmk7XWKrmeaCVpPPsIBr0RQGLcYTdxt9xgO/c5sSRFUcZ4Q62UcQz2jORXlR5pxh15l1JS4y4tpxJ5haFFJBr1rXnjVMSINR6jw0kZucpRxnmpfETz7yaAsPQ/busn3u6KTtGjNQmic4K5CusXjxAQM/neNbmqidFzLLWnZJbQEld3mFZHM8KGkjOfCr3QHn7pR++6b9Eg/yhWxeir71E/8AUZv2N1S+kWOw5qmYpaAVGJB3JP8At++r10ZoQjTPCkYHylP2/WSKA1Drn77dS/Tj/Amt2dH/AN5+nP0D/wD5Ltam1jHjr1RqJSmwSZpJJJ/22/GtuaESlOktOADA9FcPmXnCaAmrn/pt1+gy/wCSqvLMT/Nw/pDH8Yr1PcADAuQPIw5QPuLSq82sRowehkNjPXxN8ntcSO+gPQWp7ML/AGO62z1Q681xxlq5IkNK6xsk9xIwfAmvN7blzslxQ4nrYlxt0kEBQwtp5tW4UlXwI7fca9Vd/nWtOle22w2Vm6+isi4iZGjekpTh1TJSs8CiOfIYznFARrXTGoRUh+xhUwIwpTUvgjqXj2glTalgeGT76pd9Vfb7Cf1fdVgJk3Jq1Qm0JUloNoaddUGUq/ARgAbnJKsnIOYzT0aNMvtiiSWw5HkXCKy82SoBba3ACklJB+utwdJcSG1p6zxWmG247F0abZaaSENtoTFeASlKcDFAVvoe/wBS1B9AY/nVN9J+lJFxZZv0BlTkmEyWZ7TYytyKklSXUgbkoyeLnsfyN8Dopaabud/4EhP+Ai8s9ryu+ttnsoDzfpTV9y0rIeUw2iTCk8JlRHVFIUpPJxpYB4VDlyII5jYFNuunS9JfiOs2u1+iynEFIkyHw91ORgqbbSgAqHYSceB5VjdK9qtNvl2iRChsR3ZyZTkosJ4A6tJT6xSn1c7nJxvWu4Lbb02A04nibdlR23E5IyhTgSRkb0BKaf0/dNT3NESKFkKWHJ0pYUpEdpSsqccUeajvwjO5+I9JwYcW3w4cGKgojRGGo7KTuQhtPCMntJ5k112+22y1R24luiMxY6fW6thISFKIAKlnmT4kk1m0BqHpgteFWO8oT7Qctsk42ynL7P8A+T4Ctc6et/yrfLJbyniRJnMIdG/3EK43D+yDW9ukRhh7Stz61CV9U/Acb4vwVmQhGR5EjzrXfR3Fip1ZAWGk8TcO4LQd/VV1YRkZ8CR50BvLyry7qS3fJN9vlvA4URpz6WR29So9Y1+6RXqKtH9I0WKrVEpZaSVuQ4KlnfKlBBRk+QA8qAl+h624avt4Wnda2rawrG4CAH3ceBy38Kl+klzWUOJFuFlnTGYDSFtXJuIAlbRzxIkcaU9ZwndKvWwMDvzUt0eNNM6TtAbQEhbk5asfhK9JcTkk+4Dyq1KAIIIBByCDuCCORBoDQmlOkW6WJcpq5+k3OJKcDylPSFqlMu4CSptx0nIIAyCezII34rk/0v6aDRMe2XZx7GyHhFZbJ7i4l1Z/cqt9Kdns1rl2t23QmIqpaHXJAjp4ELUFYyED1R5AVragJm6Trrqq+yJfo5cnXF5tDMeMkqwEpDTbaBz2AGT516E0rZlWGw2q1rIU8w0pclSd0mQ8tTrgSe0AnA25ConQVns0Ow2m4RoLCJ0uLxSJPDxPLyrBHGvJA2GwIFXGgFKUoBSlKAUpSgP/2Q==;" vertex="1" parent="R19_NycKdf0g5RZ20iZp-30">
          <mxGeometry x="51.2" width="187.65" height="110" as="geometry" />
        </mxCell>
        <mxCell id="R19_NycKdf0g5RZ20iZp-15" value="" style="image;points=[];aspect=fixed;html=1;align=center;shadow=0;dashed=0;image=img/lib/allied_telesis/computer_and_terminals/Personal_Computer.svg;" vertex="1" parent="R19_NycKdf0g5RZ20iZp-30">
          <mxGeometry y="68.20000000000005" width="45.6" height="61.800000000000004" as="geometry" />
        </mxCell>
      </root>
    </mxGraphModel>
  </diagram>
</mxfile>
